<?xml version="1.0" encoding="UTF-8" standalone="no"?>
<!-- Created with Inkscape (http://www.inkscape.org/) -->

<svg
   xmlns:dc="http://purl.org/dc/elements/1.1/"
   xmlns:cc="http://creativecommons.org/ns#"
   xmlns:rdf="http://www.w3.org/1999/02/22-rdf-syntax-ns#"
   xmlns:svg="http://www.w3.org/2000/svg"
   xmlns="http://www.w3.org/2000/svg"
   xmlns:sodipodi="http://sodipodi.sourceforge.net/DTD/sodipodi-0.dtd"
   xmlns:inkscape="http://www.inkscape.org/namespaces/inkscape"
   width="134.76111mm"
   height="89.958328mm"
   viewBox="0 0 134.76111 89.958328"
   version="1.1"
   id="svg8"
   inkscape:version="0.92.2 5c3e80d, 2017-08-06"
   sodipodi:docname="parcours.svg">
  <defs
     id="defs2">
    <clipPath
       id="clipPath102"
       clipPathUnits="userSpaceOnUse">
      <path
         inkscape:connector-curvature="0"
         id="path100"
         d="M 0,0 H 382 V 255 H 0 Z" />
    </clipPath>
  </defs>
  <sodipodi:namedview
     id="base"
     pagecolor="#ffffff"
     bordercolor="#666666"
     borderopacity="1.0"
     inkscape:pageopacity="0.0"
     inkscape:pageshadow="2"
     inkscape:zoom="0.49497475"
     inkscape:cx="-101.07451"
     inkscape:cy="29.539169"
     inkscape:document-units="mm"
     inkscape:current-layer="layer1"
     showgrid="false"
     inkscape:window-width="1600"
     inkscape:window-height="836"
     inkscape:window-x="0"
     inkscape:window-y="27"
     inkscape:window-maximized="1" />
  <metadata
     id="metadata5">
    <rdf:RDF>
      <cc:Work
         rdf:about="">
        <dc:format>image/svg+xml</dc:format>
        <dc:type
           rdf:resource="http://purl.org/dc/dcmitype/StillImage" />
        <dc:title></dc:title>
      </cc:Work>
    </rdf:RDF>
  </metadata>
  <g
     inkscape:label="Layer 1"
     inkscape:groupmode="layer"
     id="layer1"
     transform="translate(-35.428968,-57.74107)">
    <g
       transform="matrix(0.35277777,0,0,0.35277777,35.428968,57.74107)"
       inkscape:label="parcours"
       id="g92">
      <g
         id="g94" />
      <g
         id="g96">
        <g
           clip-path="url(#clipPath102)"
           id="g98">
          <path
             inkscape:connector-curvature="0"
             id="path104"
             style="fill:#ffffff;fill-opacity:1;fill-rule:nonzero;stroke:none"
             d="M 0,0 H 382.672 V 255.113 H 0 Z" />
          <path
             inkscape:connector-curvature="0"
             id="path106"
             style="fill:none;stroke:#000000;stroke-width:1.40999997;stroke-linecap:round;stroke-linejoin:round;stroke-miterlimit:10;stroke-dasharray:none;stroke-opacity:1"
             d="M 48.207,5.105 47.914,4.945 47.734,4.785 47.559,4.73 h -7.7 L 39.621,4.785 39.207,4.84 38.91,4.891 38.199,5 37.902,5.051 37.547,5.105 H 37.312 L 37.133,5.16 h -1.715 l -0.18,0.051 H 35 l -0.176,0.055 h -1.183 l -0.239,0.05 h -0.175 l -0.18,0.055 H 32.453 L 32.277,5.426 H 32.098 L 31.922,5.477 31.684,5.426 H 29.199 L 28.961,5.371 28.664,5.316 H 28.191 L 27.895,5.266 H 27.656 L 27.363,5.211 H 27.008 L 26.711,5.16 H 26.473 L 26.238,5.105 H 25.883 L 25.645,5.051 h -0.18 L 25.172,5 H 24.281 L 24.047,4.945 H 23.809 L 23.57,4.891 H 22.859 L 22.625,4.84 H 22.09 L 21.855,4.785 H 21.676 L 21.379,4.73 H 21.145 L 20.848,4.68 20.551,4.625 H 20.375 L 20.195,4.57 H 19.602 L 19.309,4.52 h -1.125 l -0.239,0.05 -0.179,0.055 -0.235,0.105 -0.179,0.11 -0.297,0.211 -0.176,0.16 -0.176,0.215 -0.476,0.531 -0.297,0.215 -0.235,0.32 -0.238,0.266 -0.176,0.265 -0.179,0.215 -0.176,0.321 -0.121,0.211 -0.117,0.265 -0.118,0.32 -0.121,0.27 -0.117,0.371 -0.117,0.32 -0.059,0.321 -0.121,0.32 -0.058,0.266 -0.118,0.265 -0.058,0.266 -0.063,0.269 -0.058,0.317 v 0.695 l -0.059,0.481 v 0.851 l -0.059,0.481 v 0.48 l -0.058,0.531 v 3.25 l 0.058,0.321 0.059,0.425 0.059,0.586 v 0.59 l 0.058,0.692 v 4.476 L 13.68,25.52 v 0.425 l -0.059,0.375 v 0.957 l -0.059,0.535 v 1.118 l -0.058,0.375 v 13.484 l -0.059,0.641 v 0.64 l -0.062,0.637 -0.176,1.922 -0.059,0.426 v 0.531 l -0.058,0.426 -0.059,0.32 v 0.641 l -0.062,0.48 v 5.117 l -0.059,0.586 v 4.852 l -0.058,0.586 v 1.652 l -0.059,0.637 v 0.746 l -0.059,0.801 -0.058,0.746 -0.063,0.851 -0.058,0.801 -0.117,0.801 -0.059,0.906 -0.121,0.906 -0.117,0.852 -0.176,0.961 -0.121,0.851 -0.176,0.907 -0.238,0.961 -0.176,1.066 -0.18,1.012 -0.117,0.906 -0.117,0.746 -0.121,0.692 -0.059,0.585 -0.117,0.536 -0.059,0.531 -0.062,0.535 -0.059,0.586 -0.058,0.691 v 0.696 l -0.059,0.797 v 0.746 l -0.058,0.8 -0.059,0.747 -0.063,0.746 -0.058,0.586 -0.059,0.48 v 0.32 l 0.059,0.211 v 0.375 l 0.058,0.371 v 1.227 l 0.063,0.746 v 0.801 l 0.059,0.801 v 5.488 l 0.058,0.426 0.059,0.48 0.058,0.531 0.059,0.696 0.062,0.64 0.059,0.797 0.059,0.801 0.058,0.852 v 8.742 l 0.059,0.961 0.058,0.906 0.063,0.851 -0.063,0.852 -0.175,2.238 -0.118,0.75 -0.062,0.586 v 0.586 l -0.059,0.531 -0.058,0.586 v 0.746 l -0.059,0.907 -0.058,1.015 -0.059,0.957 -0.063,1.012 -0.117,0.961 -0.117,1.813 -0.059,0.8 -0.062,0.746 -0.059,0.637 -0.058,0.641 v 12.793 l -0.059,0.691 v 0.641 l -0.058,0.535 v 2.238 l 0.058,0.426 v 0.32 l 0.059,0.532 v 0.64 l 0.058,0.801 v 2.769 l -0.058,0.747 -0.117,0.64 -0.118,0.961 v 4.156 l -0.062,0.801 v 0.957 l -0.059,0.906 -0.117,0.961 -0.117,0.957 -0.18,0.907 -0.176,0.855 -0.179,0.852 -0.117,0.746 -0.122,0.691 -0.058,0.746 -0.117,0.75 -0.059,0.797 -0.058,0.856 v 2.289 L 7.875,174.5 v 1.492 l -0.059,0.692 -0.058,0.64 v 0.641 l -0.059,0.637 v 4.16 l 0.059,0.746 v 0.851 l 0.058,0.907 v 1.918 l -0.058,1.121 v 1.117 l -0.059,1.176 -0.117,1.062 -0.059,1.067 -0.121,0.906 -0.058,0.855 -0.059,0.637 v 0.535 l -0.058,0.531 v 0.321 l 0.058,0.426 v 0.48 l 0.059,0.32 0.179,0.532 0.352,0.96 0.121,0.641 v 2.133 l 0.059,0.851 v 0.852 l 0.058,0.855 -0.058,0.797 -0.059,0.696 -0.058,0.586 -0.063,0.48 v 2.824 l 0.063,0.426 0.117,0.481 0.175,0.586 0.122,0.691 0.175,0.695 0.059,0.797 0.121,0.801 0.059,0.691 0.058,0.746 0.059,0.641 0.058,0.586 0.063,0.48 0.058,0.375 0.059,0.371 0.117,0.641 0.059,0.211 0.121,0.27 0.059,0.211 0.058,0.265 0.059,0.32 0.117,0.27 0.062,0.266 0.118,0.371 0.117,0.375 0.121,0.48 0.117,0.477 0.117,0.375 0.121,0.426 0.118,0.32 0.117,0.265 0.121,0.426 0.176,0.321 0.117,0.375 0.179,0.425 0.235,0.426 0.238,0.481 0.18,0.48 0.234,0.531 0.121,0.481 0.176,0.426 0.117,0.48 0.18,0.32 0.059,0.371 0.117,0.321 0.062,0.215 0.117,0.265 0.118,0.215 0.179,0.316 0.117,0.321 0.297,0.48 0.176,0.426 0.238,0.426 0.239,0.59 0.234,0.691 0.18,0.641 0.234,0.586 0.18,0.64 0.234,0.852 0.121,0.426 0.176,0.425 0.18,0.426 0.117,0.27 0.18,0.476 0.234,0.641 0.121,0.426 0.176,0.265 0.117,0.16 0.18,0.215 0.234,0.215 0.18,0.266 0.117,0.211 0.238,0.215 0.239,0.16 0.175,0.32 0.239,0.16 0.234,0.266 0.297,0.16 0.297,0.105 0.355,0.106 0.356,0.215 0.297,0.16 0.234,0.16 0.355,0.106 0.239,0.105 0.238,0.109 0.355,0.106 0.176,0.054 0.239,0.051 0.296,0.055 0.235,0.055 0.238,0.05 0.234,0.055 h 0.297 l 0.239,0.106 0.296,0.054 0.356,0.055 h 13.086 l 0.414,0.051 h 0.418 l 0.355,0.054 0.414,0.106 0.356,0.055 0.355,0.105 0.414,0.055 h 0.415 l 0.414,0.105 0.593,0.106 0.649,0.109 0.652,0.106 0.711,0.16 0.652,0.05 0.653,0.215 0.711,0.106 0.648,0.16 0.535,0.109 0.532,0.051 0.355,0.106 0.414,0.109 0.355,0.105 0.297,0.055 0.297,0.051 0.356,0.055 0.414,0.054 0.472,0.051 0.594,0.109 0.473,0.051 0.535,0.106 0.531,0.109 0.594,0.051 0.711,0.109 0.531,0.106 0.594,0.105 0.414,0.11 0.355,0.05 0.356,0.055 h 1.184 l 0.652,0.105 h 0.652 l 0.77,0.055 0.711,0.051 0.769,0.055 0.887,0.054 h 0.949 l 1.008,-0.054 h 0.945 l 1.008,-0.055 0.945,-0.051 0.832,-0.055 0.829,-0.105 h 0.652 l 0.473,-0.055 0.414,-0.05 0.296,-0.055 0.239,-0.055 0.176,-0.051 0.117,-0.269 -0.059,-0.266 -0.058,-0.48 -0.118,-1.172 0.118,-0.531 0.179,-0.375" />
          <path
             inkscape:connector-curvature="0"
             id="path108"
             style="fill:none;stroke:#000000;stroke-width:1.40999997;stroke-linecap:round;stroke-linejoin:round;stroke-miterlimit:10;stroke-dasharray:none;stroke-opacity:1"
             d="m 45.602,8.25 -0.176,0.055 h 3.019 l 0.711,0.05 h 0.711 l 0.77,0.055 h 5.922 l 0.711,0.106 0.71,0.054 0.653,0.055 0.59,0.051 h 1.246 l 0.711,0.054 0.769,0.051 0.828,0.055 h 0.891 l 0.887,0.055 h 4.976 l 0.649,0.05 h 0.652 l 1.305,0.11 h 0.59 l 0.652,0.051 h 14.687 l 0.887,-0.051 h 2.609 l 1.004,-0.055 h 1.067 L 94.758,8.941 95.945,8.836 97.188,8.73 98.43,8.676 99.676,8.57 l 1.183,-0.054 1.125,-0.051 1.067,-0.11 1.066,-0.05 1.067,-0.055 h 4.796 l 1.008,-0.055 1.004,-0.05 1.008,-0.055 0.887,-0.106 0.89,-0.054 0.887,-0.055 0.77,-0.051 0.832,-0.054 0.828,-0.051 0.828,-0.055 0.949,-0.055 0.887,-0.05 h 1.66 l 0.887,-0.055 0.89,-0.055 0.946,-0.105 0.949,-0.055 0.945,-0.105 0.891,-0.055 0.886,-0.106 0.891,-0.05 0.828,-0.055 0.77,-0.055 0.828,-0.051 0.828,-0.054 0.832,-0.106 1.656,-0.109 0.828,-0.051 0.832,-0.109 0.77,-0.051 1.422,-0.109 0.769,-0.051 0.77,-0.055 0.828,-0.051 h 0.891 l 0.945,-0.054 0.949,-0.055 0.946,-0.105 1.007,-0.055 0.95,-0.106 0.945,-0.054 0.891,-0.051 0.828,-0.055 0.886,-0.054 0.832,-0.051 1.539,-0.11 h 6.75 l 0.415,0.11 0.476,0.105 0.473,0.106 0.531,0.109 0.477,0.106 0.531,0.105 0.594,0.266 0.648,0.215 0.711,0.374 0.711,0.317 0.535,0.215 0.59,0.32 0.418,0.266 0.472,0.265 0.415,0.375 0.414,0.266 0.355,0.375 0.297,0.316 0.238,0.215 0.235,0.266 0.179,0.32 0.235,0.375 0.355,0.426 0.18,0.371 0.234,0.48 0.238,0.536 0.18,0.636 0.235,0.641 0.238,0.641 0.176,0.64 0.121,0.797 0.058,0.801 0.176,2.238 0.121,0.746 0.059,0.801 v 0.797 L 172.402,22 v 3.199 l -0.058,0.856 -0.059,0.851 -0.062,0.852 -0.118,0.851 -0.058,0.856 -0.059,0.906 v 0.852 l -0.058,0.906 v 4.105 l 0.058,0.797 0.059,0.856 0.058,0.797 0.059,0.855 v 5.703 l -0.059,1.117 v 1.016 l -0.117,2.023 -0.058,0.852 v 3.734 l 0.058,0.746 0.117,0.852 0.118,0.961 0.121,0.957 0.058,1.066 0.118,1.067 0.058,0.961 v 1.011 l 0.063,1.067 v 2.023 l 0.058,0.907 v 0.855 l 0.059,0.852 0.058,0.961 0.059,0.957 0.059,0.961 0.062,0.906 0.059,0.957 0.058,1.066 0.059,1.176 v 1.223 l 0.058,1.226 v 4.797 l -0.058,1.227 v 4.902 l -0.059,1.281 v 1.278 l -0.058,1.281 v 7.355 l -0.059,0.961 v 3.305 l -0.062,1.223 v 7.515 l 0.062,1.016 v 1.066 l 0.059,1.012 -0.059,1.066 v 1.012 l -0.062,1.227 -0.059,1.277 -0.117,1.332 -0.117,1.336 -0.18,1.383 -0.238,1.336 -0.235,1.332 -0.179,1.277 -0.235,1.281 -0.058,1.172 -0.121,1.117 -0.118,1.067 -0.058,1.066 v 4.16 l -0.059,1.118 -0.062,1.171 -0.059,1.172 -0.117,1.176 -0.18,1.117 -0.117,1.172 -0.176,1.067 -0.121,1.121 -0.117,1.117 -0.059,1.066 -0.121,1.121 -0.058,1.067 v 8.156 l -0.059,1.172 v 1.117 l -0.059,1.172 -0.058,1.176 -0.059,1.117 -0.058,1.121 -0.063,1.172 -0.058,1.066 -0.118,2.024 v 11.621 l 0.059,0.961 0.117,0.957 0.063,1.015 0.117,1.012 0.117,1.066 0.059,1.118 0.179,1.066 0.059,1.172 0.117,1.176 0.059,1.172 0.121,1.172 0.117,1.117 0.117,1.121 0.121,1.121 0.117,1.066 0.118,1.117 0.062,1.067 0.117,1.066 0.059,1.117 v 1.122 l 0.059,1.121 v 10.23 l 0.058,0.906 0.063,1.016 0.058,1.066 v 1.118 l 0.059,1.066 v 13.004 l -0.059,0.59 v 1.383 l -0.058,0.746 -0.063,0.8 v 0.692 l -0.058,0.801 -0.059,0.695 v 0.637 l -0.059,0.64 v 0.426 l -0.058,0.426 -0.059,0.215 -0.062,0.16 -0.059,0.16 v 0.641 l -0.059,0.265 -0.058,0.321 -0.18,0.425 -0.234,0.426 -0.356,0.481 -0.414,0.48 -0.414,0.426 -0.535,0.426 -0.531,0.32 -0.653,0.266 -0.535,0.32 -0.531,0.211 -0.473,0.269 -0.476,0.211 -0.356,0.055 h -0.828 l -0.355,0.105 h -0.946 l -0.535,-0.105 h -0.652 l -0.711,-0.105 -0.769,-0.161 -0.829,-0.109 -0.828,-0.106 -0.89,-0.054 -0.946,-0.051 -0.949,-0.055 h -3.969 l -1.066,0.055 -1.063,0.211 -1.187,0.16 -1.301,0.215 -1.305,0.32 -1.3,0.106 -1.305,0.16 -1.242,0.055 -1.246,0.265 -1.184,0.16 -1.066,0.161 -1.067,0.21 -1.066,0.11 -1.063,0.211 -1.066,0.16 -1.066,0.215 -1.008,0.16 -2.133,0.211 -2.25,0.32 -1.066,0.16 -1.008,0.106 -1.004,0.109 h -1.008 l -1.066,0.106 -1.008,0.054 -0.945,0.106 -0.95,0.051 -0.949,0.109 -0.945,0.051 -1.008,0.054 -0.945,0.055 -0.95,0.051 H 99.32 l -1.066,0.109 h -5.035 l -0.946,-0.109 h -1.898 l -0.887,-0.106 -0.886,-0.054 -0.832,-0.051 -0.77,-0.055 -0.828,-0.054 -0.891,-0.106 -0.828,-0.051 -0.828,-0.16 -0.711,-0.109 -1.422,-0.211 -0.769,-0.11 -0.711,-0.05 -0.77,-0.16 H 78.59 l -0.711,-0.106 -0.649,-0.055 -0.71,-0.105 -0.653,-0.055 -0.711,-0.054 -0.594,-0.106 -0.589,-0.055 -0.594,-0.105 h -0.531 l -0.594,-0.055 -0.594,-0.105 -0.531,-0.051 -0.594,-0.055 h -0.59 l -0.535,-0.054 -0.652,-0.051 -0.531,-0.055 h -2.368 l -0.238,-0.055 h -0.18 l -0.234,-0.05 -0.297,-0.11 -0.355,-0.105 -0.473,-0.106 -0.355,-0.109 -0.477,-0.156 -0.293,-0.16 -0.238,-0.215" />
          <path
             inkscape:connector-curvature="0"
             id="path110"
             style="fill:none;stroke:#000000;stroke-width:1.40999997;stroke-linecap:round;stroke-linejoin:round;stroke-miterlimit:10;stroke-dasharray:none;stroke-opacity:1"
             d="m 250.578,6.758 -0.176,-0.16 -0.179,-0.106 h -0.176 l -0.18,0.051 h -2.012 l -0.417,0.055 -0.473,0.054 -0.473,0.051 -0.414,0.055 -0.476,0.105 -0.356,0.055 h -0.473 l -0.472,0.055 h -0.414 l -0.535,0.05 -0.473,0.106 -0.531,0.055 -0.594,0.054 -0.594,0.051 h -0.531 l -0.535,0.055 -0.414,0.054 -0.473,0.051 -0.473,0.055 h -0.476 l -0.473,0.055 -0.414,0.05 h -0.355 l -0.414,0.055 h -0.77 l -0.414,0.055 -0.414,0.051 -0.356,0.054 -0.238,0.051 -0.355,0.055 h -0.18 l -0.293,0.054 h -0.477 l -0.175,0.051 h -0.297 l -0.238,0.055 -0.176,0.055 h -0.18 l -0.293,0.05 h -0.891 l -0.234,0.055 h -0.238 l -0.238,0.055 h -0.473 l -0.176,0.05 -0.476,0.11 h -0.415 l -0.175,0.051 -0.18,0.054 -0.176,0.055 -0.238,0.051 h -0.238 l -0.176,0.054 h -0.18 l -0.234,0.051 h -0.238 l -0.239,0.055 h -0.176 l -0.238,0.055 -0.176,0.05 -0.179,0.055 -0.176,0.055 -0.18,0.105 h -0.176 l -0.179,0.055 -0.293,0.105 -0.18,0.106 -0.176,0.055 -0.179,0.105 -0.176,0.055 -0.297,0.211 -0.117,0.16 -0.18,0.215 -0.176,0.211 -0.238,0.32 -0.18,0.32 -0.234,0.375 -0.18,0.371 -0.234,0.426 -0.18,0.481 -0.176,0.375 -0.121,0.586 -0.175,0.531 -0.059,0.535 -0.121,0.637 -0.059,0.429 -0.058,0.477 -0.059,0.375 v 0.426 l -0.058,0.64 v 0.532 l -0.059,0.695 -0.063,0.691 v 0.746 l -0.058,0.696 -0.059,0.691 v 4.266 l 0.059,0.476 0.058,0.586 0.063,0.641 0.059,0.64 v 1.387 l 0.058,0.637 0.117,1.281 0.059,0.692 0.062,0.746 v 0.695 l 0.059,0.637 v 0.535 l 0.059,0.586 v 0.586 l 0.058,0.64 v 0.801 l 0.059,0.797 v 0.801 l 0.058,0.851 -0.058,0.907 v 0.695 l -0.059,0.797 v 0.746 l -0.117,1.492 v 4.906 l -0.059,0.746 v 6.184 l 0.059,0.852 v 0.851 l 0.059,0.856 v 2.023 l -0.059,1.332 -0.059,1.441 -0.062,1.543 -0.117,1.387 -0.176,1.387 -0.121,1.387 -0.059,1.226 -0.117,1.223 -0.121,1.226 -0.117,1.227 -0.235,2.664 -0.121,1.332 -0.117,1.547 -0.238,1.547 -0.176,1.492 -0.238,1.437 -0.238,1.227 -0.118,1.227 -0.175,1.121 -0.18,1.011 -0.176,1.012 -0.121,1.067 -0.176,1.011 -0.117,1.067 -0.063,1.172 -0.117,1.226 -0.058,1.281 -0.117,1.332 -0.18,1.278 -0.117,1.281 -0.18,1.277 -0.176,1.176 -0.121,1.117 -0.117,0.906 v 6.61 l -0.059,1.387 v 1.437 l -0.058,1.547 -0.117,1.547 -0.18,1.492 -0.176,1.387 -0.121,1.332 -0.176,1.277 -0.121,1.227 -0.117,1.172 -0.117,1.121 -0.059,1.066 -0.062,1.117 v 3.84 l 0.062,1.332 v 1.332 l 0.059,1.387 v 3.836 l 0.058,1.121 v 1.117 l 0.059,1.121 0.117,2.133 0.121,1.223 0.117,1.281 0.118,1.387 0.121,1.492 0.175,1.387 0.122,1.492 0.117,1.597 0.117,1.547 0.059,1.703 0.058,1.707 v 5.332 l 0.063,0.797 0.117,0.746 0.176,0.641 0.179,0.691 0.239,0.696 0.175,0.797 0.297,0.906 0.238,1.066 0.176,1.176 0.239,1.383 0.117,1.281 0.058,1.227 0.059,1.172 0.059,0.906 v 0.746 l 0.062,0.641 0.059,0.531 0.058,0.48 0.117,0.481 0.121,0.531 0.235,0.586 0.18,0.695 0.175,0.906 0.18,1.063 0.117,1.281 0.059,1.438 0.058,1.492 0.059,1.652 -0.059,1.653 v 1.546 l -0.058,1.547 -0.059,1.227 -0.117,1.117 -0.059,1.016 -0.062,0.957 v 5.062 l 0.062,1.227 v 1.121 l 0.059,1.117 v 7.305 l -0.059,1.172 v 1.011 l -0.062,1.067 -0.059,0.851 v 2.293 l 0.059,0.481 0.121,0.586 0.117,0.586 0.176,0.586 0.18,0.746 0.175,0.746 0.18,0.801 0.117,0.746 0.121,0.746 0.059,0.746 0.059,0.906 0.058,0.961 v 1.012 l 0.059,1.011 v 2.454 l 0.121,0.425 0.117,0.321 0.117,0.215 0.18,0.21 0.117,0.375 0.117,0.426 0.18,0.586 0.234,0.481 0.239,0.48 0.179,0.477 0.176,0.375 0.117,0.48 0.121,0.32 0.118,0.266 0.117,0.211 0.179,0.215 0.059,0.16 0.18,0.32 0.058,0.211 0.059,0.215 0.059,0.266 0.117,0.265 0.179,0.375 0.118,0.211 0.179,0.16 0.117,0.215 0.118,-0.32 0.297,-0.266 0.355,-0.375 0.594,-0.371 0.828,-0.16 0.828,-0.055 0.891,0.055 0.769,0.16 0.473,0.106 0.297,0.054 0.117,-0.214 0.058,-0.161 0.059,-0.32 0.18,-0.265 0.297,-0.051 0.297,-0.11" />
          <path
             inkscape:connector-curvature="0"
             id="path112"
             style="fill:none;stroke:#000000;stroke-width:1.40999997;stroke-linecap:round;stroke-linejoin:round;stroke-miterlimit:10;stroke-dasharray:none;stroke-opacity:1"
             d="m 248.031,7.984 -0.176,-0.16 -0.179,-0.16 0.472,-0.055 h 0.594 l 0.887,0.055 h 0.891 l 1.007,0.055 h 1.836 l 0.887,0.051 h 0.77 l 0.71,0.054 h 1.243 l 0.593,0.051 0.594,0.055 0.711,0.054 h 0.77 l 0.828,0.051 h 0.949 l 0.945,0.055 h 1.008 l 1.067,0.055 h 1.953 l 0.949,0.05 0.828,0.11 0.77,0.16 0.652,0.105 0.711,0.16 0.769,0.211 0.711,0.215 0.711,0.16 0.59,0.106 h 2.668 l 0.59,0.055 h 0.652 l 0.594,0.05 h 7.461 l 0.887,0.055 h 0.769 l 0.711,0.055 0.594,0.051 0.531,0.054 0.535,0.055 h 3.848 l 0.652,-0.055 h 3.496 l 0.532,-0.054 h 3.019 l 0.594,-0.051 h 2.015 L 304,9.582 h 1.715 l 0.89,-0.055 0.946,-0.05 0.89,-0.055 0.946,-0.051 h 0.949 l 0.887,-0.055 h 0.89 L 313,9.262 h 4.027 l 0.594,0.054 0.59,0.055 0.652,0.051 h 0.711 l 0.711,0.055 0.711,0.05 1.305,0.11 0.648,0.051 h 1.895 l 0.652,-0.051 h 1.305 l 0.652,-0.055 h 0.59 l 0.594,-0.055 h 1.242 l 0.652,-0.05 h 0.653 l 0.652,-0.055 0.707,-0.051 0.652,-0.055 h 0.653 l 0.652,-0.054 0.652,-0.051 0.649,-0.055 0.594,-0.054 0.652,-0.051 0.648,-0.055 0.653,-0.105 0.769,-0.055 0.711,-0.055 0.594,-0.051 0.652,-0.054 0.531,-0.051 0.536,-0.055 h 0.472 l 0.414,-0.054 h 0.414 l 0.414,-0.051 h 0.833 l 0.355,-0.055 h 1.242 l 0.531,-0.055 h 1.125 l 0.653,-0.05 h 0.652 l 0.652,-0.055 0.77,-0.055 0.77,-0.05 0.769,-0.055 0.711,-0.055 0.652,-0.051 0.473,-0.054 0.414,-0.055 0.238,-0.105 0.176,-0.051 0.238,-0.055 0.239,-0.105 0.234,-0.11 0.238,-0.051 0.239,-0.054 0.414,-0.055 0.472,-0.105 0.473,-0.055 0.477,-0.051 0.414,-0.055 h 0.355 l 0.234,-0.05 h 6.278 l 0.238,0.05 0.238,0.055 0.356,0.051 0.414,0.109 0.355,0.106 0.473,0.054 0.711,0.211 0.414,0.215 0.355,0.211 0.356,0.16 0.297,0.11 0.355,0.105 0.235,0.106 0.297,0.16 0.179,0.215 0.176,0.16 0.297,0.16 0.18,0.266 0.234,0.16 0.355,0.32 0.297,0.32 0.356,0.371 0.297,0.426 0.355,0.426 0.297,0.48 0.352,0.426 0.296,0.481 0.356,0.48 0.297,0.481 0.179,0.48 0.293,0.477 0.18,0.535 0.176,0.426 0.238,0.531 0.117,0.48 0.18,0.535 0.176,0.586 0.179,0.481 0.176,0.476 0.18,0.481 0.176,0.375 0.121,0.48 0.117,0.317 0.176,0.43 0.058,0.531 0.122,0.426 0.117,0.535 0.058,0.425 0.121,0.426 0.059,0.321 0.059,0.425 0.058,0.532 0.059,0.48 0.058,0.695 0.063,0.586 0.058,0.586 v 0.641 l 0.059,0.586 v 6.875 l 0.059,0.48 v 0.481 l 0.058,0.531 v 0.48 l 0.059,0.532 v 0.64 l 0.062,0.532 v 4.16 l -0.062,0.586 v 1.277 l -0.059,0.746 v 3.945 l -0.058,0.536 v 1.171 l -0.059,0.692 -0.059,0.641 -0.121,0.8 -0.058,0.852 -0.117,0.906 -0.118,1.066 -0.121,1.118 -0.058,1.066 -0.117,1.016 -0.059,1.011 -0.063,0.907 -0.058,0.746 -0.059,0.64 v 0.637 l -0.058,0.695 v 13.645 l 0.058,0.746 v 0.746 l 0.059,0.746 0.058,0.692 v 0.695 l 0.063,0.691 0.059,0.696 0.058,0.691 0.059,0.641 0.058,0.636 v 0.696 l 0.059,0.746 0.121,0.851 0.059,0.961 0.117,0.852 0.058,0.851 0.063,0.961 v 0.852 l 0.058,0.855 v 3.25 l -0.058,0.747 v 0.851 l -0.063,0.801 v 0.801 l -0.058,0.851 -0.059,0.961 -0.058,1.012 -0.059,1.066 -0.059,1.012 -0.062,1.012 -0.059,0.8 v 18.071 l -0.058,1.012 v 1.011 l -0.059,1.067 -0.117,1.121 -0.121,1.117 -0.059,1.176 -0.117,1.117 v 6.289 l -0.059,1.172 -0.058,1.121 -0.063,1.226 -0.058,1.278 -0.117,1.387 -0.059,1.441 -0.121,1.383 -0.059,1.332 -0.058,1.387 -0.059,1.281 v 6.769 l 0.059,1.383 0.058,1.492 0.059,1.602 v 3.039 l -0.059,1.437 -0.117,1.332 -0.059,1.282 v 1.277 l -0.058,1.121 -0.063,1.117 -0.058,1.016 v 3.73 l 0.058,0.797 v 13.328 l 0.063,1.278 v 1.281 l 0.058,1.172 v 1.012 l 0.059,1.011 v 0.961 l 0.059,0.852 v 9.277 l -0.059,0.852 v 0.906 l -0.059,0.586 v 8.582 l 0.059,0.531 v 0.481 l 0.059,0.32 v 9.223 l -0.059,0.32 v 0.746 l -0.059,0.211 -0.058,0.375 v 0.477 l -0.063,0.32 v 0.746 l -0.058,0.375 -0.059,0.426 v 0.32 l -0.058,0.32 v 0.266 l -0.059,0.32 v 0.266 l -0.059,0.266 v 3.199 l -0.062,0.375 v 0.426 l -0.059,0.32 -0.058,0.426 -0.059,0.32 -0.117,0.32 -0.18,0.051 -0.175,0.426 -0.122,0.215 -0.234,0.105 -0.238,0.055 h -0.532 l -0.296,0.105 -0.297,0.16 -0.239,0.055 -0.292,0.106 -0.297,0.105 -0.356,0.109 -0.297,0.161 -0.355,0.105 -0.297,0.051 -0.356,0.109 -0.355,0.051 h -1.539 l -0.238,0.055 -0.176,0.054 -0.18,0.051 -0.176,0.055 h -0.179 l -0.176,0.055 -0.238,0.105 -0.235,0.055 -0.355,0.051 h -0.711 l -0.356,0.105 h -1.304 l -0.828,0.109 -0.297,0.051 -0.235,0.055 -0.355,0.105 -0.297,0.055 -0.238,0.105 -0.414,0.055 -0.297,0.16 -0.356,0.106 -0.355,0.054 h -0.235 l -0.355,0.051 -0.297,0.055 h -0.414 l -0.535,0.055 h -0.414 l -0.473,0.05 h -0.355 l -0.414,0.055 h -1.184 l -0.297,-0.055 h -0.652 l -0.414,-0.05 h -0.414 l -0.356,-0.055 h -0.238 l -0.238,-0.055 -0.235,-0.051 h -0.355 l -0.356,-0.054 h -0.238 l -0.414,-0.051 h -0.828 l -0.477,-0.055 h -0.59 l -0.593,-0.054 -0.531,-0.106 h -4.208 l -0.355,-0.055 h -0.531 l -0.473,-0.05 -0.476,-0.055 -0.59,-0.106 -0.535,-0.054 h -0.473 l -0.531,-0.055 h -1.067 l -0.594,-0.051 h -0.593 l -0.532,-0.054 -0.535,-0.055 -0.472,-0.105 h -2.368 l -0.652,-0.051 h -0.652 l -0.59,-0.055 -0.773,-0.055 -0.77,-0.05 -1.125,-0.055 -1.301,-0.055 -1.246,0.055 h -1.359 l -1.188,0.055 -1.359,0.05 -1.481,0.11 -1.543,0.051 h -1.539 l -1.422,0.105 h -1.359 l -1.363,-0.105 h -1.363 l -1.36,-0.051 -1.246,-0.215 -1.242,-0.16 -1.125,-0.215 -1.008,-0.106 h -1.008 l -0.886,-0.05 h -0.95 l -0.945,-0.055 -0.891,-0.106 -0.886,-0.109 -0.891,-0.105 -0.77,-0.106 -0.71,-0.16 -0.649,-0.16 -0.773,-0.215 -0.828,-0.211 -0.77,-0.16 -0.711,-0.109 h -0.531 l -0.535,-0.051 -0.711,-0.055 -0.828,-0.051 h -0.828 l -0.829,-0.054 -0.711,-0.055 -0.593,-0.051 -0.711,-0.055 -0.77,-0.105 -0.886,-0.055 -0.891,-0.054 -0.77,-0.051 -0.652,-0.055 -0.77,-0.055 -0.886,-0.05 -1.067,-0.055 h -3.851 l -1.125,-0.055 h -3.196 l -0.89,-0.05 h -0.945 l -1.008,-0.055 -0.949,-0.051 -0.77,-0.109 h -0.711 l -0.769,-0.051 -0.829,-0.055 -0.949,-0.055 -1.125,-0.105 h -11.668 l -1.004,0.055 -1.066,0.05 -1.067,0.055 -1.007,0.055 h -0.95 l -0.828,0.051 H 247.5 l -1.066,0.16 -1.125,0.105 -1.188,0.055 -1.004,0.055 -0.89,0.05 h -1.422 l -0.59,0.055 h -1.305 l -0.59,-0.055 h -0.593 l -0.473,-0.05 -0.414,-0.055 -0.418,-0.055 -0.414,-0.05 -0.473,-0.055 -0.594,-0.16 h -0.472 l -0.473,-0.051 -0.414,-0.055 h -3.023 l -0.59,0.055 -0.711,0.051 h -0.535 l -0.414,0.109 -0.293,0.051 -0.239,0.055 -0.238,0.05 h -0.531 l -0.18,0.055 -0.176,0.105 -0.179,0.055 -0.235,0.055 -0.179,0.105 -0.235,0.16 -0.297,0.106 -0.179,0.055 -0.176,0.105 -0.121,-0.426 v -1.547 l 0.297,-1.171" />
          <path
             inkscape:connector-curvature="0"
             id="path114"
             style="fill:none;stroke:#000000;stroke-width:1.40999997;stroke-linecap:round;stroke-linejoin:round;stroke-miterlimit:10;stroke-dasharray:none;stroke-opacity:1"
             d="m 27.363,19.871 -0.121,-0.269 -0.117,-0.161 -0.059,-0.156 0.059,-0.16 -0.238,-0.16 h -0.59 l -0.18,0.105 -0.234,0.106 -0.18,0.109 -0.176,0.156 -0.297,0.27 -0.238,0.211 -0.238,0.215 -0.234,0.211 -0.239,0.214 -0.117,0.161 -0.18,0.215 -0.175,0.16 -0.18,0.156 -0.176,0.16 -0.117,0.16 -0.121,0.16 -0.059,0.161 -0.117,0.16 -0.121,0.16 v 0.535 l 0.062,0.316 0.118,0.161 0.175,0.054 0.239,0.16 0.179,0.106 0.176,0.055 0.18,0.105 0.234,0.105 0.239,0.11 h 0.355 l 0.355,0.105 0.356,0.055 0.297,0.051 0.234,0.109 h 0.356 l 0.179,0.16 0.176,0.106 0.18,0.051 0.234,0.16 0.18,0.054 0.176,0.266 0.121,0.16 0.058,0.321 v 0.214 l 0.059,0.161 v 0.21 l -0.059,0.266 -0.058,0.215 -0.239,0.266 -0.296,0.32 -0.356,0.16 -0.414,0.16 -0.414,0.106 -0.535,0.054 h -0.59 l -0.473,0.055 h -1.543 l -0.117,-0.16 v -0.215" />
          <path
             inkscape:connector-curvature="0"
             id="path116"
             style="fill:none;stroke:#000000;stroke-width:1.40999997;stroke-linecap:round;stroke-linejoin:round;stroke-miterlimit:10;stroke-dasharray:none;stroke-opacity:1"
             d="m 29.73,21.363 -0.175,-0.16 -0.121,-0.16 v 0.32 l 0.058,0.532 0.121,0.535 0.117,0.797 0.118,0.695 0.179,0.851 0.118,0.747 0.058,0.64 0.059,0.531 0.062,0.426 v 0.321 l 0.059,0.214 0.058,0.211 0.118,0.16 -0.059,0.161" />
          <path
             inkscape:connector-curvature="0"
             id="path118"
             style="fill:none;stroke:#000000;stroke-width:1.40999997;stroke-linecap:round;stroke-linejoin:round;stroke-miterlimit:10;stroke-dasharray:none;stroke-opacity:1"
             d="m 28.25,19.391 -0.176,-0.161 -0.179,-0.214 -0.176,-0.161 0.176,0.055 0.179,0.16 0.352,0.106 0.418,0.265 0.472,0.215 0.594,0.266 0.531,0.32 0.594,0.266 0.414,0.32 0.531,0.16 0.415,0.215 0.355,0.211 0.297,0.055 0.117,0.16" />
          <path
             inkscape:connector-curvature="0"
             id="path120"
             style="fill:none;stroke:#000000;stroke-width:1.40999997;stroke-linecap:round;stroke-linejoin:round;stroke-miterlimit:10;stroke-dasharray:none;stroke-opacity:1"
             d="m 34.23,20.508 -0.175,-0.16 -0.117,-0.211 v -0.426 l 0.175,0.426 0.117,0.531 0.122,0.746 0.117,0.801 0.117,0.851 0.121,0.801 0.117,0.801 0.117,0.746 0.121,0.641 0.118,0.531 0.175,1.277 v 0.321 l 0.063,0.425 v 0.696 L 35.355,28.984 35.297,28.77 35.18,28.453 35.121,28.023 35,27.547 34.941,27.012 34.824,26.426 34.766,25.84 34.707,25.094 34.645,24.508 34.586,23.812 v -0.585 l -0.059,-0.586 v -1.438 l 0.059,-0.265 0.059,-0.27 0.121,-0.16 0.175,-0.211 0.239,-0.106 0.355,-0.109 0.356,-0.105 0.234,-0.106 0.355,-0.055 h 0.536 l 0.238,0.161 0.293,0.214 0.238,0.317 0.238,0.48 0.235,0.375 0.297,0.586 0.297,0.641 0.238,0.586 0.293,0.586 0.238,0.48 0.176,0.477 0.18,0.429 0.238,0.372 0.117,0.375 0.117,0.371 0.121,0.425 0.118,0.266 0.117,0.43 0.058,0.425 v 0.372 l 0.063,0.425 v 0.481 l -0.063,0.375 v 0.957 l -0.175,0.055 -0.059,-0.215 -0.059,-0.426" />
          <path
             inkscape:connector-curvature="0"
             id="path122"
             style="fill:none;stroke:#000000;stroke-width:1.40999997;stroke-linecap:round;stroke-linejoin:round;stroke-miterlimit:10;stroke-dasharray:none;stroke-opacity:1"
             d="m 35.652,23.227 -0.175,0.16 -0.18,0.109 0.238,0.371 0.297,0.055 0.414,0.16 0.473,0.106 0.414,0.054 h 0.476 l 0.473,0.106 h 1.656" />
          <path
             inkscape:connector-curvature="0"
             id="path124"
             style="fill:none;stroke:#000000;stroke-width:1.40999997;stroke-linecap:round;stroke-linejoin:round;stroke-miterlimit:10;stroke-dasharray:none;stroke-opacity:1"
             d="m 42.879,21.469 -0.117,-0.16 -0.18,-0.211 -0.059,0.156 v 0.32 l 0.118,0.481 0.121,0.695 0.117,0.957 0.297,1.121 0.293,1.227 0.297,1.172 0.296,0.957 0.118,0.8 0.121,0.481 0.058,0.32 0.059,0.16 0.059,-0.16 L 44.418,29.41 44.359,28.93 44.18,28.133 44.004,27.117 43.824,26 43.648,24.828 43.59,23.707 43.531,22.801 v -1.278 l 0.117,-0.32 0.059,-0.265 0.117,-0.161 0.121,-0.269 0.235,-0.211 0.355,-0.16 0.356,-0.106 h 0.414 l 0.476,-0.054 0.356,0.054 0.472,0.106 0.356,0.16 0.238,0.32 0.235,0.371 0.121,0.266 0.058,0.375 v 0.746 l -0.179,0.586 -0.235,0.48 -0.476,0.586 -0.415,0.375 -0.296,0.266 -0.293,0.32 -0.239,0.211 v 0.321 l 0.059,0.32 0.117,0.371 0.297,0.535 0.477,0.531 0.531,0.375 0.769,0.426 0.711,0.375 0.653,0.317 0.711,0.429 0.531,0.266 0.535,0.32 0.355,0.266 0.235,0.16 0.18,0.051 H 52" />
          <path
             inkscape:connector-curvature="0"
             id="path126"
             style="fill:none;stroke:#000000;stroke-width:1.40999997;stroke-linecap:round;stroke-linejoin:round;stroke-miterlimit:10;stroke-dasharray:none;stroke-opacity:1"
             d="m 53.422,19.496 -0.18,-0.055 0.117,0.321 v 0.855 l 0.121,0.531 0.176,0.801 0.18,0.957 0.234,1.016 0.063,0.957 0.058,0.855 0.059,0.797 0.059,0.696 0.058,0.585 0.059,0.481 v 0.637" />
          <path
             inkscape:connector-curvature="0"
             id="path128"
             style="fill:none;stroke:#000000;stroke-width:1.40999997;stroke-linecap:round;stroke-linejoin:round;stroke-miterlimit:10;stroke-dasharray:none;stroke-opacity:1"
             d="M 51.406,20.402 51.23,20.297 51.051,20.242 h -0.176 l 0.176,0.055 h 1.246 l 0.707,-0.055 h 3.969 l 0.652,-0.051 h 0.473 l 0.476,-0.054 h 0.356 l 0.293,-0.055 h 0.238 l 0.18,-0.051 h 0.234 l -0.176,0.266" />
          <path
             inkscape:connector-curvature="0"
             id="path130"
             style="fill:none;stroke:#000000;stroke-width:1.40999997;stroke-linecap:round;stroke-linejoin:round;stroke-miterlimit:10;stroke-dasharray:none;stroke-opacity:1"
             d="m 22.566,91.988 -0.062,-0.215 0.062,0.161 v 1.171 l -0.062,0.536 v 0.586 l -0.059,0.531 -0.058,0.695 -0.117,0.586 -0.122,0.586 -0.175,0.586 -0.18,0.586 -0.176,0.535 -0.117,0.371 -0.121,0.375 -0.059,0.266 -0.058,0.211 v 0.215" />
          <path
             inkscape:connector-curvature="0"
             id="path132"
             style="fill:none;stroke:#000000;stroke-width:1.40999997;stroke-linecap:round;stroke-linejoin:round;stroke-miterlimit:10;stroke-dasharray:none;stroke-opacity:1"
             d="m 21.734,92.68 -0.175,-0.16 0.234,-0.051 0.297,0.051 0.476,0.054 0.649,0.051 0.769,0.055 h 0.711 l 0.77,-0.055 h 2.488 l 0.238,0.055 0.176,0.105" />
          <path
             inkscape:connector-curvature="0"
             id="path134"
             style="fill:none;stroke:#000000;stroke-width:1.40999997;stroke-linecap:round;stroke-linejoin:round;stroke-miterlimit:10;stroke-dasharray:none;stroke-opacity:1"
             d="m 22.148,96.145 h -0.769 0.711 l 0.476,0.105 0.649,0.055 0.594,0.105 0.652,0.055 0.531,0.055 0.535,0.05 0.473,0.055 0.414,0.055 0.356,0.105 0.296,0.051 0.235,0.055 0.179,0.054" />
          <path
             inkscape:connector-curvature="0"
             id="path136"
             style="fill:none;stroke:#000000;stroke-width:1.40999997;stroke-linecap:round;stroke-linejoin:round;stroke-miterlimit:10;stroke-dasharray:none;stroke-opacity:1"
             d="m 29.789,94.758 -0.176,0.269 v 0.317 l -0.058,0.48 -0.063,0.696 -0.058,0.796 -0.118,0.801 -0.058,0.852 -0.121,0.746 -0.059,0.48 -0.058,0.375 -0.059,0.211 -0.059,0.215" />
          <path
             inkscape:connector-curvature="0"
             id="path138"
             style="fill:none;stroke:#000000;stroke-width:1.40999997;stroke-linecap:round;stroke-linejoin:round;stroke-miterlimit:10;stroke-dasharray:none;stroke-opacity:1"
             d="m 31.566,94.547 -0.117,-0.16 -0.058,0.371 0.058,0.375 v 0.48 l 0.059,0.532 -0.059,0.64 v 0.641 l -0.121,0.636 -0.058,0.641 -0.118,0.586 -0.117,0.481 -0.121,0.32 -0.059,0.16 -0.117,0.211 v -1.117 l 0.059,-0.535 0.058,-0.586 0.118,-0.586 0.121,-0.481 0.058,-0.426 0.176,-0.265 0.063,-0.16 0.058,-0.16 0.117,-0.161 0.239,0.161 0.175,0.16 0.239,0.32 0.355,0.32 0.297,0.371 0.356,0.536 0.472,0.371 0.356,0.375 0.297,0.265 0.355,0.106 0.234,0.054 h 0.297 l 0.239,-0.054 0.296,-0.106 0.235,-0.265 0.594,-0.961 0.234,-0.481 0.18,-0.32 0.117,-0.211 -0.059,-0.16 -0.176,-0.215 v -0.211" />
          <path
             inkscape:connector-curvature="0"
             id="path140"
             style="fill:none;stroke:#000000;stroke-width:1.40999997;stroke-linecap:round;stroke-linejoin:round;stroke-miterlimit:10;stroke-dasharray:none;stroke-opacity:1"
             d="m 39.68,94.012 -0.059,-0.16 v 1.015 l -0.059,0.531 v 0.586 l -0.117,0.586 -0.062,0.535 -0.117,0.532 -0.059,0.425 -0.059,0.27 -0.058,0.211 -0.063,0.16 -0.117,0.375" />
          <path
             inkscape:connector-curvature="0"
             id="path142"
             style="fill:none;stroke:#000000;stroke-width:1.40999997;stroke-linecap:round;stroke-linejoin:round;stroke-miterlimit:10;stroke-dasharray:none;stroke-opacity:1"
             d="m 45.723,93.746 -0.297,-0.055 -0.238,0.11 -0.176,0.051 -0.239,0.109 -0.355,0.105 -0.356,0.266 -0.296,0.215 -0.356,0.32 -0.355,0.317 -0.356,0.32 -0.234,0.32 -0.238,0.215 -0.118,0.32 v 0.211 l 0.235,0.215 0.238,0.16 0.414,0.16 0.535,0.106 0.473,0.105 0.594,0.055 0.648,0.266 0.652,0.425 0.536,0.481 0.472,0.426 0.176,0.375 v 0.211 l -0.176,0.269 -0.297,0.317 -0.472,0.375 -0.653,0.214 -0.652,0.161 -0.59,0.105 h -1.008 l -0.355,-0.105 h -0.297 l -0.176,-0.055 -0.179,-0.106 v -0.214 l 0.296,-0.161" />
          <path
             inkscape:connector-curvature="0"
             id="path144"
             style="fill:none;stroke:#000000;stroke-width:1.40999997;stroke-linecap:round;stroke-linejoin:round;stroke-miterlimit:10;stroke-dasharray:none;stroke-opacity:1"
             d="m 51.879,94.492 h -0.414 l -0.235,0.16 -0.121,0.321 -0.234,0.531 -0.18,0.641 -0.234,0.746 -0.238,0.906 -0.239,0.961 -0.175,1.012 v 0.96 l -0.059,0.907 -0.062,0.691 v 0.426 l -0.059,0.16 -0.059,-0.16 -0.058,-0.211 -0.117,-0.27 -0.18,-0.425 -0.235,-0.371 -0.121,-0.481 -0.117,-0.266 v -0.269 l 0.059,-0.211 0.238,-0.109 0.234,-0.211 0.415,-0.055 0.417,-0.16 0.532,-0.106 0.652,-0.16 0.59,-0.16 0.711,-0.266 0.652,-0.265 0.594,-0.375 0.531,-0.481 0.594,-0.476 0.414,-0.535 0.414,-0.586 0.297,-0.375 0.176,-0.266 0.179,-0.16 0.118,0.215 v 2.984 L 56.5,99.344 v 1.812" />
          <path
             inkscape:connector-curvature="0"
             id="path146"
             style="fill:none;stroke:#000000;stroke-width:1.40999997;stroke-linecap:round;stroke-linejoin:round;stroke-miterlimit:10;stroke-dasharray:none;stroke-opacity:1"
             d="m 29.492,36.926 h -0.176 l -0.058,-0.16 v 0.855 l 0.058,0.211 0.059,0.215 0.059,0.16 0.121,0.16 0.117,0.16 0.117,0.211 0.121,0.266 0.176,0.215 0.176,0.265 0.179,0.266 0.118,0.16 0.238,0.16 0.238,0.215 0.235,0.211 0.058,0.215 0.18,0.16 0.117,0.16 0.18,0.16 0.175,0.106 0.18,0.055 0.176,0.16 0.18,0.05 0.293,0.215 0.121,0.161 0.175,0.05 0.18,0.11 0.297,0.05 0.176,0.11 0.238,0.105 0.234,0.055 0.18,0.105 0.235,0.106 0.296,0.055 0.356,0.16 0.238,0.105 0.297,0.106 0.293,0.109 0.238,0.16 0.239,0.106 0.414,0.105 0.296,0.106 0.356,0.109 0.355,0.051 0.235,0.109 0.297,0.051 0.355,0.109 0.473,0.106 0.594,0.105 0.593,0.16 0.532,0.106 0.472,0.109 0.535,0.051 0.59,0.109 0.535,0.161 0.532,0.105 0.535,0.16 0.414,0.106 0.59,0.054 0.355,0.051 0.356,0.16 0.418,0.055 0.234,0.055 0.297,0.05 h 0.711 l 0.355,0.11 0.356,0.051 0.531,0.054 h 0.477 l 0.648,0.051 0.711,0.055 h 1.125 l 0.594,0.105 h 5.332 l 0.531,-0.105 h 0.594 l 0.59,-0.055 0.535,-0.051 0.59,-0.105 0.535,-0.11 0.472,-0.05 0.414,-0.055 0.536,-0.215 0.414,-0.051 0.531,-0.109 0.535,-0.156 0.414,-0.11 0.473,-0.16 0.355,-0.105 0.414,-0.106 0.473,-0.109 0.355,-0.051 0.356,-0.16 0.355,-0.055 0.711,-0.211 0.414,-0.054 0.356,-0.106 0.535,-0.055 0.531,-0.105 0.594,-0.215 0.652,-0.16 0.59,-0.266 0.652,-0.214 0.594,-0.161 0.473,-0.211 0.414,-0.214 0.355,-0.161 0.297,-0.105 0.297,-0.055 0.235,-0.05 0.179,-0.055 0.239,-0.106 0.234,-0.105 0.18,-0.11 0.293,-0.105 0.296,-0.16 0.414,-0.266 0.536,-0.16 0.531,-0.32 0.711,-0.321 0.594,-0.265 0.531,-0.266 0.535,-0.16 0.473,-0.215 0.355,-0.16 0.531,-0.16 0.711,-0.32 0.418,-0.157 0.293,-0.16 0.414,-0.16 0.477,-0.16 0.297,-0.215 0.414,-0.16 0.414,-0.211 0.473,-0.27 0.593,-0.211 0.649,-0.375 0.711,-0.32 0.711,-0.316 0.652,-0.321 0.594,-0.214 0.531,-0.266 0.477,-0.266 0.828,-0.429 0.296,-0.157 0.176,-0.054 0.18,-0.055 0.234,-0.105 0.18,-0.106 0.293,-0.16 0.535,-0.215 0.594,-0.32 0.707,-0.426 0.773,-0.371 0.77,-0.375 0.59,-0.32 0.711,-0.266 0.711,-0.215 0.472,-0.211 0.477,-0.16 0.297,-0.105 0.176,-0.055 0.238,-0.055 0.176,-0.051 0.238,-0.109 0.234,-0.051 0.418,-0.109 0.59,-0.16 0.594,-0.211 0.828,-0.321 0.711,-0.32 0.711,-0.265 0.652,-0.215 0.652,-0.16 0.532,-0.161 0.593,-0.156 0.356,-0.109 0.355,-0.051 0.352,-0.109 0.18,-0.051 0.175,-0.055 0.239,-0.055 0.297,-0.05 0.355,-0.055 0.473,-0.106 0.535,-0.105 0.59,-0.269 0.711,-0.211 0.711,-0.215 0.828,-0.211 0.89,-0.215 0.828,-0.266 0.887,-0.215 0.891,-0.265 1.422,-0.32 0.531,-0.161 0.477,-0.16 0.351,-0.051 0.238,-0.109 0.239,-0.16 0.175,-0.106 0.18,-0.054 0.176,-0.051 0.355,-0.109 0.297,-0.051 0.473,-0.055 0.711,-0.105 0.769,-0.106 0.95,-0.109 0.828,-0.051 0.769,-0.055 h 2.25 l 0.18,0.055 h 0.238 l 0.356,0.051 h 6.75 l 0.531,0.055 0.355,0.054 0.297,0.106 0.239,0.105 0.234,0.106 0.18,0.16 0.238,0.054 0.355,0.055 0.414,0.051 0.414,0.215 0.59,0.105 0.594,0.321 0.652,0.265 0.532,0.16 0.414,0.16 0.355,0.106 0.18,0.109 0.234,0.051 0.18,0.109 0.297,0.161 0.234,0.105 0.238,0.106 0.356,0.16 0.531,0.215 0.594,0.32 0.711,0.316 0.769,0.375 0.711,0.321 0.711,0.211 0.594,0.32 0.473,0.215 0.414,0.211 0.594,0.429 0.175,0.16 0.18,0.157 0.293,0.16 0.238,0.16 0.238,0.27 0.235,0.21 0.297,0.215 0.179,0.211 0.176,0.11 0.18,0.16 0.117,0.211 0.117,0.215 0.18,0.32 0.176,0.266 0.121,0.265 0.176,0.32 0.179,0.211 0.235,0.321 0.179,0.375 0.235,0.32 0.121,0.32 0.117,0.371 0.297,0.375 0.297,0.532 0.234,0.48 0.238,0.426 0.118,0.266 0.121,0.32 0.117,0.375 0.176,0.32 0.121,0.317 0.117,0.269 0.117,0.371 0.121,0.426 0.176,0.535 0.117,0.371 0.18,0.321 v 2.187 l -0.059,0.426 v 0.797 l -0.058,0.59 v 1.382 l -0.063,0.375 -0.058,0.532 v 0.48 l -0.059,0.535 -0.059,0.531 -0.058,0.586 -0.059,0.536 -0.121,0.476 -0.058,0.43 -0.118,0.316 -0.121,0.481 -0.117,0.48 -0.059,0.426 -0.058,0.586 -0.117,0.375 -0.063,0.371 -0.117,0.32 -0.059,0.375 -0.117,0.371 -0.121,0.375 -0.117,0.426 -0.117,0.371 -0.18,0.641 -0.117,0.586 -0.059,0.64 -0.121,0.532 -0.176,0.429 -0.179,0.266 -0.117,0.16 -0.118,0.321 v 0.21 l -0.121,0.375 -0.117,0.481 -0.117,0.426 -0.121,0.586 -0.176,0.425 -0.18,0.375 -0.234,0.532 -0.18,0.375 -0.234,0.425 -0.238,0.372 -0.118,0.32 -0.121,0.426 -0.117,0.32 -0.176,0.375 -0.121,0.266 -0.176,0.265 -0.121,0.266 -0.175,0.269 -0.239,0.211 -0.234,0.321 -0.355,0.32 -0.297,0.266 -0.297,0.214 -0.356,0.321 -0.297,0.265 -0.414,0.371 -0.531,0.426 -0.414,0.375 -0.594,0.426 -0.414,0.32 -0.355,0.321 -0.414,0.425 -0.297,0.266 -0.414,0.266 -0.356,0.32 -0.297,0.269 -0.414,0.317 -0.414,0.48 -0.414,0.321 -0.476,0.375 -0.532,0.425 -0.535,0.426 -0.531,0.371 -0.594,0.321 -0.472,0.214 -0.414,0.215 -0.415,0.157 -0.414,0.214 -0.355,0.215 -0.297,0.106 -0.355,0.105 -0.297,0.106 -0.414,0.109 -0.414,0.266 -0.473,0.16 -0.594,0.215 -0.535,0.156 -0.531,0.16 -0.531,0.109 -0.536,0.161 -0.531,0.105 -0.594,0.106 -0.531,0.214 -0.594,0.106 -0.531,0.16 -0.535,0.105 -0.531,0.055 -0.653,0.215 -0.652,0.105 -0.711,0.161 -0.652,0.105 -0.711,0.055 -0.649,0.16 -0.593,0.051 -0.594,0.054 -0.531,0.106 -0.594,0.055 -0.59,0.05 -0.711,0.055 h -5.152 l -0.653,-0.055 h -0.652 l -0.59,-0.05 -0.594,-0.106 -0.414,-0.055 -0.535,-0.105 -0.414,-0.16 -0.414,-0.055 -0.531,-0.105 -0.535,-0.161 -0.59,-0.16 -0.594,-0.16 -0.531,-0.105 -0.418,-0.11 -0.473,-0.16 -0.414,-0.16 -0.414,-0.156 -0.355,-0.16 -0.297,-0.11 -0.356,-0.16 -0.297,-0.16 -0.355,-0.211 -0.473,-0.16 -0.355,-0.215 -0.414,-0.16 -0.297,-0.106 -0.297,-0.16 -0.293,-0.211 -0.238,-0.215 -0.414,-0.265 -0.356,-0.321 -0.828,-0.64 -0.355,-0.211 -0.356,-0.215 -0.476,-0.531 -0.118,-0.215 -0.179,-0.32 -0.176,-0.266 -0.297,-0.32 -0.297,-0.426 -0.234,-0.481 -0.238,-0.265 -0.118,-0.32 -0.121,-0.215 -0.176,-0.211 -0.117,-0.321 -0.121,-0.375 -0.176,-0.371 -0.117,-0.32 -0.179,-0.32 -0.118,-0.266 -0.121,-0.32 -0.117,-0.321 -0.117,-0.531 -0.121,-0.32 -0.117,-0.32 -0.059,-0.375 -0.059,-0.266 -0.058,-0.32 -0.063,-0.321 -0.058,-0.211 -0.059,-0.32 -0.117,-0.531 v -0.43 l -0.059,-0.316 v -0.43 l -0.062,-0.426 -0.059,-0.371 v -0.426 l -0.058,-0.32 v -1.652 l 0.058,-0.321 0.059,-0.265 0.062,-0.27 0.059,-0.32 0.117,-0.316 0.059,-0.215 0.179,-0.215 0.118,-0.266 0.117,-0.211 0.18,-0.269 0.117,-0.266 0.121,-0.16 0.117,-0.211 0.117,-0.215 0.121,-0.215 0.117,-0.156 0.235,-0.215 0.238,-0.265 0.18,-0.161 0.234,-0.16 0.238,-0.265 0.297,-0.215 0.235,-0.266 0.179,-0.265 0.297,-0.161 0.235,-0.214 0.238,-0.161 0.176,-0.16 0.179,-0.32 0.118,-0.16 0.121,-0.211 0.175,-0.266 0.18,-0.215 0.117,-0.265 0.118,-0.32 0.121,-0.321 0.058,-0.32 v -0.641 l -0.058,-0.316 -0.063,-0.16 -0.117,-0.27 -0.176,-0.16 -0.121,-0.211 -0.059,-0.215 -0.175,-0.211 -0.356,-0.215 -0.476,-0.32 -0.297,-0.16 -0.235,-0.211 -0.296,-0.215 -0.297,-0.16 -0.235,-0.211 -0.297,-0.215 -0.238,-0.16 L 98.195,47.641 98.016,47.535 97.84,47.48 97.66,47.426 97.484,47.375 97.246,47.32 97.07,47.266 96.891,47.215 h -0.176 l -0.18,-0.16 h -2.308 l -0.297,0.16 -0.176,0.051 -0.297,0.109 -0.238,0.051 -0.239,0.109 -0.175,0.106 -0.18,0.16 -0.176,0.105 -0.176,0.16 -0.238,0.106 -0.238,0.215 -0.297,0.211 -0.355,0.16 -0.356,0.32 -0.414,0.27 -0.59,0.265 -0.476,0.321 -0.649,0.371 -0.594,0.215 -0.531,0.48 -0.594,0.371 -0.472,0.32 -0.414,0.426 -0.356,0.321 -0.355,0.371 -0.297,0.269 -0.297,0.32 -0.297,0.266 -0.234,0.211 -0.18,0.32 -0.238,0.215 -0.117,0.211 -0.118,0.32 -0.179,0.215 -0.117,0.321 -0.118,0.425 -0.179,0.266 -0.118,0.32 -0.058,0.266 -0.121,0.215 -0.059,0.211 -0.058,0.269 -0.059,0.16 -0.059,0.211 -0.121,0.266 -0.058,0.269 -0.117,0.266 -0.059,0.371 -0.059,0.27 -0.121,0.316 -0.117,0.43 -0.18,0.371 -0.175,0.48 -0.239,0.371 -0.175,0.321 -0.297,0.375 -0.239,0.32 -0.234,0.32 -0.18,0.211 -0.175,0.106 -0.18,0.269 -0.297,0.211 -0.234,0.16 -0.239,0.266 -0.297,0.27 -0.234,0.371 -0.355,0.375 -0.356,0.476 -0.355,0.321 -0.414,0.32 -0.297,0.375 -0.414,0.211 -0.239,0.32 -0.175,0.16 -0.18,0.16 -0.176,0.055 -0.18,0.106 -0.175,0.214 -0.239,0.266 -0.297,0.266 -0.296,0.215 -0.356,0.265 -0.234,0.211 -0.356,0.16 -0.238,0.27 -0.234,0.211 -0.297,0.16 -0.121,0.215 -0.176,0.05 -0.18,0.055 -0.293,0.055 -0.297,0.051 -0.179,0.054 -0.293,0.161 -0.239,0.05 -0.238,0.11 -0.297,0.05 -0.355,0.215 -0.293,0.215 -0.477,0.156 -0.472,0.215 -0.532,0.266 -0.593,0.215 -0.594,0.265 -0.59,0.215 -0.473,0.211 -0.476,0.16 -0.945,0.321 -0.415,0.16 -0.476,0.215 -0.473,0.211 -0.297,0.16 -0.297,0.054 -0.355,0.16 -0.293,0.106 -0.297,0.16 -0.297,0.106 -0.297,0.109 -0.296,0.211 -0.297,0.16 -0.414,0.16 -0.356,0.106 -0.414,0.16 -0.531,0.16 -0.535,0.16 -0.532,0.266 -0.652,0.16 -0.531,0.215 -0.414,0.16 -0.477,0.051 -0.297,0.054 -0.355,0.055 -0.352,0.106 -0.238,0.054 -0.238,0.051 -0.176,0.055 -0.18,0.054 -0.176,0.051 -0.179,0.055 h -0.176 l -0.18,0.051 -0.293,0.054 -0.297,0.055 -0.355,0.051 -0.414,0.054 -0.477,0.106 -0.414,0.16 -0.414,0.11 -0.414,0.16 -0.297,0.105 -0.355,0.051 -0.235,0.16 -0.296,0.16 -0.239,0.11 -0.297,0.105 h -0.769 l -0.297,0.055 -0.293,0.051 -0.418,0.16 -0.414,0.105 -0.473,0.055 -0.593,0.215 -0.59,0.211 -0.653,0.16 -0.593,0.215 -0.59,0.105 -0.477,0.055 -0.59,0.265 -0.472,0.211 -0.418,0.16 -0.473,0.161 -0.414,0.109 -0.414,0.051 -0.414,0.109 -0.477,0.051 -0.355,0.055 -0.531,0.054 h -0.532 l -0.535,0.051 h -1.301 l -0.71,0.055 h -0.653 l -0.711,0.051 h -7.523 l -0.176,0.109 h -0.18 l -0.175,0.051 -0.18,0.054 h -0.77 l 0.121,-0.214 0.176,-0.157" />
          <path
             inkscape:connector-curvature="0"
             id="path148"
             style="fill:none;stroke:#000000;stroke-width:1.40999997;stroke-linecap:round;stroke-linejoin:round;stroke-miterlimit:10;stroke-dasharray:none;stroke-opacity:1"
             d="m 32.395,231.371 -0.176,-0.16 0.176,0.109 -0.297,0.106 h -0.59 l -0.535,0.051 -0.473,0.054 -0.652,0.16 -0.532,0.215 -0.472,0.211 -0.477,0.321 -0.293,0.16 -0.179,0.16 -0.118,0.16 0.059,0.371 0.176,0.109 0.238,0.161 0.297,0.211 0.828,0.32 0.594,0.265 0.531,0.161 0.594,0.16 0.59,0.265 0.652,0.161 0.473,0.16 0.476,0.32 0.414,0.215 0.297,0.211 0.234,0.215 0.059,0.16 0.063,0.265 v 0.215 l -0.122,0.16 -0.234,0.161 -0.414,0.156 -0.535,0.109 -0.652,0.106 -0.711,0.16 -0.77,0.105 -0.711,0.11 -0.711,0.05 -0.59,0.055 h -0.355 l -0.297,0.051 h -0.176 l 0.176,-0.156 h 0.297" />
          <path
             inkscape:connector-curvature="0"
             id="path150"
             style="fill:none;stroke:#000000;stroke-width:1.40999997;stroke-linecap:round;stroke-linejoin:round;stroke-miterlimit:10;stroke-dasharray:none;stroke-opacity:1"
             d="m 37.43,233.609 -0.118,-0.211 -0.058,0.161 v 0.211 l -0.063,0.48 v 1.332 l -0.058,0.801 v 1.332 l 0.058,0.48 0.063,0.426 0.058,0.215 0.118,0.156 -0.059,-0.316 -0.059,-0.375" />
          <path
             inkscape:connector-curvature="0"
             id="path152"
             style="fill:none;stroke:#000000;stroke-width:1.40999997;stroke-linecap:round;stroke-linejoin:round;stroke-miterlimit:10;stroke-dasharray:none;stroke-opacity:1"
             d="m 34.23,231.691 -0.414,-0.371 -0.234,-0.16 -0.121,-0.16 0.18,-0.109 0.355,0.16 0.531,0.16 0.77,0.32 0.891,0.375 0.828,0.211 0.769,0.215 0.77,0.106 0.711,0.105 0.652,0.055 0.473,0.105 0.472,0.055 h 0.356 l 0.297,0.054 h 0.472" />
          <path
             inkscape:connector-curvature="0"
             id="path154"
             style="fill:none;stroke:#000000;stroke-width:1.40999997;stroke-linecap:round;stroke-linejoin:round;stroke-miterlimit:10;stroke-dasharray:none;stroke-opacity:1"
             d="m 43.293,232.652 -0.176,-0.109 -0.179,0.055 -0.118,0.214 v 0.372 l -0.121,0.535 -0.117,0.797 -0.176,1.015 -0.297,1.012 -0.476,2.023 -0.235,0.907 -0.058,0.586 -0.121,0.32 v -0.746 l 0.121,-0.692 0.117,-0.906 0.297,-0.906 0.234,-1.012 0.297,-0.855 0.356,-0.797 0.179,-0.641 0.235,-0.48 0.238,-0.215 0.117,-0.156 0.238,-0.055 0.239,-0.106 h 0.234 l 0.238,-0.054 0.176,0.054 0.238,0.161 0.239,0.316 0.176,0.43 0.179,0.586 0.235,1.492 0.121,0.797 0.234,0.746 0.238,0.746 0.297,0.75 0.297,0.476 0.234,0.376 0.18,0.16 0.176,0.05 h 0.18" />
          <path
             inkscape:connector-curvature="0"
             id="path156"
             style="fill:none;stroke:#000000;stroke-width:1.40999997;stroke-linecap:round;stroke-linejoin:round;stroke-miterlimit:10;stroke-dasharray:none;stroke-opacity:1"
             d="m 41.633,237.34 -0.117,-0.156 0.711,-0.11 h 1.597 l 0.594,0.11 0.473,0.05 0.535,0.055 0.414,0.051 h 0.828" />
          <path
             inkscape:connector-curvature="0"
             id="path158"
             style="fill:none;stroke:#000000;stroke-width:1.40999997;stroke-linecap:round;stroke-linejoin:round;stroke-miterlimit:10;stroke-dasharray:none;stroke-opacity:1"
             d="m 50.34,235.531 -0.176,-0.269 -0.121,-0.211 -0.059,0.32 v 1.012 l -0.058,0.691 v 2.664 l -0.059,0.481 v 0.269 l -0.117,-0.429 v -0.586 l -0.062,-0.692 -0.059,-0.851 v -2.828 l 0.059,-0.797 0.238,-0.696 0.238,-0.48 0.297,-0.477 0.355,-0.269 0.414,-0.211 0.473,-0.106 0.473,-0.054 0.594,-0.055 h 0.472 l 0.473,0.055 0.355,0.054 0.356,0.051 0.297,0.055 0.238,0.32 0.117,0.211 0.059,0.27 -0.059,0.425 -0.058,0.372 -0.239,0.48 -0.472,0.48 -0.414,0.532 -0.653,0.535 -0.531,0.48 -0.477,0.477 -0.414,0.375 -0.175,0.211 -0.122,0.215 -0.117,0.16 v 0.48 l 0.117,0.321 0.18,0.32 0.414,0.316 0.414,0.321 0.473,0.375 0.594,0.371 0.472,0.32 0.477,0.16 0.473,0.215 0.414,0.211 0.296,0.215 0.239,0.16 0.234,0.051 0.059,-0.16" />
          <path
             inkscape:connector-curvature="0"
             id="path160"
             style="fill:none;stroke:#000000;stroke-width:1.40999997;stroke-linecap:round;stroke-linejoin:round;stroke-miterlimit:10;stroke-dasharray:none;stroke-opacity:1"
             d="m 59.641,233.078 -0.239,-0.266 -0.238,-0.214 -0.176,-0.215 -0.058,0.32 v 0.535 l 0.058,0.797 v 1.922 l 0.117,0.957 0.059,0.856 0.121,0.746 0.117,0.476 0.059,0.27 0.059,-0.215" />
          <path
             inkscape:connector-curvature="0"
             id="path162"
             style="fill:none;stroke:#000000;stroke-width:1.40999997;stroke-linecap:round;stroke-linejoin:round;stroke-miterlimit:10;stroke-dasharray:none;stroke-opacity:1"
             d="m 56.973,229.879 -0.176,-0.211 0.234,0.105 0.239,0.211 0.414,0.27 0.535,0.316 0.531,0.27 0.652,0.211 0.594,0.054 0.707,0.055 0.652,0.051 h 1.125 l 0.477,-0.051 h 0.59 l 0.238,-0.055" />
          <path
             inkscape:connector-curvature="0"
             id="path164"
             style="fill:none;stroke:#000000;stroke-width:1.40999997;stroke-linecap:round;stroke-linejoin:round;stroke-miterlimit:10;stroke-dasharray:none;stroke-opacity:1"
             d="m 70.238,243.152 h -0.176 l 0.059,-0.214 0.18,-0.266 0.058,-0.215 0.118,-0.211 0.117,-0.16 0.062,-0.215 0.117,-0.211 0.118,-0.269 0.121,-0.157 0.117,-0.214 0.176,-0.321 0.062,-0.211 0.059,-0.16 0.117,-0.215 0.059,-0.16 0.058,-0.371 0.121,-0.215 0.117,-0.215 0.118,-0.211 0.058,-0.265 v -0.321 l 0.063,-0.269 0.117,-0.211 0.058,-0.215 v -0.531 l 0.059,-0.215 0.059,-0.371 0.062,-0.16 0.059,-0.266 v -0.535 l 0.058,-0.211 0.059,-0.215 v -0.851 l 0.059,-0.215 0.058,-0.16 v -3.891 l -0.058,-0.426 v -0.375 l -0.059,-0.265 v -4.797 l -0.059,-0.215 -0.058,-0.266 -0.059,-0.16 v -0.531 l -0.062,-0.16 v -0.426 l -0.059,-0.16 v -1.973 l 0.059,-0.426 0.062,-0.375 0.059,-0.32 0.058,-0.16 v -1.223 l 0.176,-0.48 0.121,-0.215 0.059,-0.211 0.058,-0.27 0.059,-0.21 0.121,-0.266 0.059,-0.215 0.117,-0.32 0.059,-0.211 v -0.215 l 0.058,-0.32 0.059,-0.266 0.062,-0.215 0.117,-0.32 0.059,-0.156 0.059,-0.161 0.058,-0.214 0.063,-0.161 0.058,-0.214 v -0.211 l 0.059,-0.215 v -0.211 l 0.058,-0.215 0.118,-0.211 0.062,-0.215 0.059,-0.265 0.117,-0.215 0.058,-0.211 0.059,-0.215 0.063,-0.215 0.058,-0.211 0.059,-0.215 0.058,-0.211 0.059,-0.16 v -0.375 l 0.059,-0.211 0.062,-0.214 0.059,-0.266 0.058,-0.215 0.176,-0.797 0.121,-0.32 0.059,-0.215 0.058,-0.16 0.059,-0.211 v -0.27 l 0.059,-0.16 0.058,-0.156 0.121,-0.27 0.059,-0.21 0.117,-0.27 0.059,-0.371 0.062,-0.16 0.117,-0.266 0.117,-0.32 0.122,-0.215 0.117,-0.211 0.058,-0.266 0.059,-0.16 0.058,-0.215 0.063,-0.214 0.059,-0.211 0.058,-0.215 0.117,-0.321 0.121,-0.316 0.059,-0.16 0.117,-0.215 0.176,-0.266 0.063,-0.16 0.058,-0.215 0.059,-0.21 0.058,-0.161 0.118,-0.265 0.179,-0.27 0.059,-0.211 0.117,-0.215 0.062,-0.265 0.118,-0.215 0.058,-0.16 0.117,-0.16 0.122,-0.157 0.058,-0.269 0.117,-0.266 0.059,-0.265 0.121,-0.321 0.117,-0.215 0.117,-0.16 0.059,-0.265 0.18,-0.321 0.117,-0.16 0.121,-0.211 0.117,-0.215 0.059,-0.211 0.058,-0.214 0.059,-0.211 0.062,-0.215 0.118,-0.215 0.117,-0.266 0.121,-0.16 0.117,-0.211 0.117,-0.215 0.121,-0.214 0.118,-0.317 0.117,-0.269 0.117,-0.266 0.121,-0.16 0.117,-0.16 0.18,-0.16 0.117,-0.211 0.117,-0.215 0.121,-0.211 0.118,-0.16 0.175,-0.321 0.121,-0.214 0.118,-0.211 0.117,-0.27 0.121,-0.266 0.117,-0.265 0.117,-0.321 0.059,-0.214 0.121,-0.157 0.176,-0.269 0.121,-0.16 0.117,-0.317 0.176,-0.269 0.121,-0.321 0.176,-0.265 0.179,-0.266 0.118,-0.375 0.179,-0.265 0.176,-0.266 0.176,-0.32 0.179,-0.211 0.118,-0.215 0.179,-0.32 0.118,-0.211 0.179,-0.215 0.117,-0.321 0.176,-0.214 0.18,-0.211 0.117,-0.321 0.18,-0.214 0.176,-0.266 0.179,-0.266 0.293,-0.265 0.121,-0.16 0.117,-0.215 0.118,-0.161 0.179,-0.21 0.118,-0.321 0.296,-0.215 0.239,-0.371 0.297,-0.32 0.293,-0.266 0.238,-0.32 0.176,-0.215 0.179,-0.211 0.117,-0.32 0.18,-0.215 0.117,-0.211 0.18,-0.16 0.117,-0.16 0.117,-0.215 0.239,-0.266 0.234,-0.32 0.18,-0.371 0.238,-0.27 0.176,-0.21 0.179,-0.215 0.176,-0.211 0.18,-0.215 0.176,-0.266 0.179,-0.215 0.176,-0.105 0.117,-0.215 0.18,-0.211 0.176,-0.269 0.18,-0.266 0.296,-0.211 0.235,-0.269 0.238,-0.266 0.356,-0.32 0.234,-0.321 0.355,-0.265 0.356,-0.371 0.238,-0.215 0.414,-0.321 0.238,-0.32 0.297,-0.266 0.356,-0.16 0.234,-0.211 0.356,-0.269 0.297,-0.211 0.71,-0.641 0.356,-0.265 0.473,-0.266 0.414,-0.269 0.476,-0.157 0.356,-0.215 0.414,-0.214 0.355,-0.266 0.297,-0.32 0.356,-0.16 0.293,-0.161 0.238,-0.105 0.297,-0.055 0.117,-0.156 0.297,-0.109 0.297,-0.266 0.414,-0.266 0.472,-0.265 0.473,-0.375 0.418,-0.215 0.414,-0.266 0.356,-0.211 0.414,-0.215 0.296,-0.16 0.356,-0.211 0.293,-0.109 0.18,-0.105 0.175,-0.161 0.18,-0.105 0.234,-0.16 0.356,-0.215 0.476,-0.211 0.473,-0.32 0.594,-0.375 0.531,-0.321 0.594,-0.425 0.648,-0.426 0.711,-0.371 0.711,-0.43 0.711,-0.371 0.652,-0.32 0.536,-0.321 0.531,-0.265 0.414,-0.215 0.238,-0.211 0.414,-0.16 0.239,-0.16 0.414,-0.161 0.472,-0.16 0.473,-0.265 0.711,-0.375 0.711,-0.426 0.769,-0.481 0.77,-0.425 0.769,-0.321 0.77,-0.371 0.594,-0.375 0.652,-0.32 0.59,-0.32 0.535,-0.266 0.652,-0.32 0.946,-0.532 0.414,-0.215 0.476,-0.16 0.473,-0.265 0.531,-0.266 0.711,-0.266 0.653,-0.269 0.652,-0.266 0.652,-0.211 0.59,-0.32 0.535,-0.32 0.653,-0.215 0.648,-0.32 0.77,-0.266 0.71,-0.266 0.711,-0.375 0.653,-0.265 0.535,-0.211 0.531,-0.27 0.356,-0.156 0.593,-0.32 0.176,-0.11 0.297,-0.16 0.355,-0.211 0.235,-0.105 0.18,-0.11 0.238,-0.16 0.355,-0.265 0.176,-0.161 0.356,-0.211 0.414,-0.269 0.355,-0.266 0.473,-0.265 0.355,-0.266 0.297,-0.16 0.356,-0.215 0.238,-0.16 0.297,-0.106 0.234,-0.105 0.18,-0.055 0.297,-0.105 0.175,-0.11 0.239,-0.105 0.355,-0.105 0.473,-0.215 0.531,-0.266 0.711,-0.32 0.594,-0.371 0.593,-0.27 0.415,-0.211 0.355,-0.16 0.234,-0.055 0.18,-0.105 0.234,-0.055 0.18,-0.051 0.414,-0.054 0.238,-0.106 0.235,-0.054 0.238,-0.106 0.297,-0.16 0.234,-0.106 0.18,-0.054 0.176,-0.055 0.18,-0.051 0.175,-0.16 0.121,-0.16 0.176,-0.16 0.238,-0.055 0.176,-0.051 0.297,-0.109 0.238,-0.051 0.297,-0.16 0.235,-0.109 0.238,-0.106 0.238,-0.054 0.356,-0.051 0.293,-0.16 0.179,-0.106 0.235,-0.109 0.179,-0.106 0.239,-0.054 0.293,-0.161 0.238,-0.105 0.297,-0.106 0.176,-0.054 0.179,-0.106 0.235,-0.16 0.179,-0.16 0.176,-0.105 h 0.356 l 0.238,-0.055 h 0.238 l 0.235,-0.106 0.179,-0.16 0.176,-0.054 0.18,-0.106 0.175,-0.055 h 0.18 l 0.059,0.161 0.176,0.105 h 0.418 l 0.175,-0.051 0.176,-0.054 h 0.18 l 0.176,-0.051 0.179,-0.055 0.176,-0.16 h 0.18 l -0.18,-0.106 -0.176,-0.054 -0.355,-0.106 -0.653,-0.109 -0.886,-0.106 h -1.125 l -1.067,0.426" />
          <path
             inkscape:connector-curvature="0"
             id="path166"
             style="fill:none;stroke:#000000;stroke-width:1.40999997;stroke-linecap:round;stroke-linejoin:round;stroke-miterlimit:10;stroke-dasharray:none;stroke-opacity:1"
             d="m 128.34,121.781 -0.238,-0.316 -0.059,0.211 -0.059,0.375 -0.117,0.32 -0.121,0.477 -0.117,0.64 -0.18,0.801 -0.176,0.797 -0.179,0.855 -0.176,0.797 -0.059,0.746 -0.121,0.59 -0.058,0.426 -0.059,0.211 v -1.227 l 0.059,-0.691 0.058,-0.801 0.063,-0.851 0.117,-0.907 0.176,-0.851 0.179,-0.856 0.176,-0.746 0.121,-0.586 0.118,-0.476 0.117,-0.321 0.121,-0.214 0.234,-0.161 0.238,-0.16 0.356,-0.16 0.414,-0.16 0.535,-0.105 0.77,-0.161 0.886,-0.105 1.067,-0.215 1.125,-0.211 1.066,-0.215 1.067,-0.16 0.945,-0.105 0.773,-0.106 0.473,-0.055 h 0.297 l 0.176,0.055 h -0.414 l -0.414,0.106 -0.594,0.265" />
          <path
             inkscape:connector-curvature="0"
             id="path168"
             style="fill:none;stroke:#000000;stroke-width:1.40999997;stroke-linecap:round;stroke-linejoin:round;stroke-miterlimit:10;stroke-dasharray:none;stroke-opacity:1"
             d="m 128.043,123.863 h 2.191 l 1.539,-0.109 0.77,-0.106 0.711,-0.16 0.476,-0.105 0.473,-0.106 0.235,-0.109 0.179,-0.106 h 0.176" />
          <path
             inkscape:connector-curvature="0"
             id="path170"
             style="fill:none;stroke:#000000;stroke-width:1.40999997;stroke-linecap:round;stroke-linejoin:round;stroke-miterlimit:10;stroke-dasharray:none;stroke-opacity:1"
             d="m 136.156,122.742 -0.117,0.32 v 0.321 l -0.059,0.48 -0.121,0.586 -0.117,0.692 -0.117,0.535 -0.121,0.531 -0.117,0.375 -0.059,0.266 -0.058,0.211" />
          <path
             inkscape:connector-curvature="0"
             id="path172"
             style="fill:none;stroke:#000000;stroke-width:1.40999997;stroke-linecap:round;stroke-linejoin:round;stroke-miterlimit:10;stroke-dasharray:none;stroke-opacity:1"
             d="m 138.941,122.422 h -0.355 l -0.059,0.215 -0.121,0.32 -0.117,0.531 -0.117,0.641 -0.18,0.691 -0.117,0.746 -0.18,0.801 -0.117,0.746 -0.117,0.641 -0.121,0.426 -0.059,0.16 v -2.133 l 0.121,-0.531 0.059,-0.535 0.176,-0.426 0.117,-0.426 0.121,-0.32 0.059,-0.266 0.058,-0.16 0.18,-0.16 0.176,0.105 0.117,0.215 0.18,0.211 0.238,0.375 0.234,0.371 0.356,0.426 0.297,0.43 0.296,0.316 0.414,0.27 0.356,0.105 0.473,0.105 0.414,-0.105 0.414,-0.266 0.355,-0.48 0.297,-0.586 0.297,-0.535 0.059,-0.426 0.121,-0.266" />
          <path
             inkscape:connector-curvature="0"
             id="path174"
             style="fill:none;stroke:#000000;stroke-width:1.40999997;stroke-linecap:round;stroke-linejoin:round;stroke-miterlimit:10;stroke-dasharray:none;stroke-opacity:1"
             d="m 146.699,122.742 -0.117,0.32 v 0.481 l 0.059,0.531 v 0.586 l -0.059,0.586 -0.062,0.535 -0.059,0.426 -0.059,0.32 -0.058,0.161" />
          <path
             inkscape:connector-curvature="0"
             id="path176"
             style="fill:none;stroke:#000000;stroke-width:1.40999997;stroke-linecap:round;stroke-linejoin:round;stroke-miterlimit:10;stroke-dasharray:none;stroke-opacity:1"
             d="m 151.852,123.383 -0.18,-0.055 h -0.828 l -0.532,0.055 -0.414,0.265 -0.593,0.375 -0.414,0.372 -0.297,0.425 -0.239,0.321 -0.058,0.214 v 0.211 l 0.121,0.215 0.176,0.16 0.297,0.161 0.472,0.16 0.356,0.105 0.414,0.055 0.414,0.105 0.297,0.106 0.179,0.105 0.235,0.11 0.121,0.16 0.059,0.211 0.058,0.16 v 0.215 l -0.18,0.211 -0.175,0.215 -0.356,0.214 -0.414,0.157 -0.473,0.16 -0.355,0.109 -0.355,0.106 -0.18,0.054 -0.297,0.051 h -0.176" />
          <path
             inkscape:connector-curvature="0"
             id="path178"
             style="fill:none;stroke:#000000;stroke-width:1.40999997;stroke-linecap:round;stroke-linejoin:round;stroke-miterlimit:10;stroke-dasharray:none;stroke-opacity:1"
             d="m 155.938,123.008 -0.176,-0.266 -0.063,0.16 v 0.321 l -0.058,0.531 v 0.641 l -0.059,0.691 -0.238,0.746 -0.176,0.75 -0.18,0.746 -0.176,0.746 -0.117,0.531 -0.121,0.426 -0.058,0.16 -0.059,-0.211 v -1.015 l 0.059,-0.371 0.058,-0.321 0.063,-0.265 0.117,-0.215 0.176,-0.105 h 1.363 l 0.414,-0.106 0.473,-0.16 0.476,-0.32 0.414,-0.375 0.356,-0.372 0.234,-0.425 0.18,-0.375 0.058,-0.426 0.059,-0.375 v -0.371 l 0.059,-0.16 0.062,-0.215 0.176,-0.16 v 0.48 l -0.059,0.481 -0.058,0.691 -0.121,0.801 -0.176,0.906 -0.18,0.906 -0.117,0.746 -0.176,0.692 -0.121,0.48 -0.117,0.321 -0.059,0.214 -0.058,0.211" />
          <path
             inkscape:connector-curvature="0"
             id="path180"
             style="fill:none;stroke:#000000;stroke-width:1.40999997;stroke-linecap:round;stroke-linejoin:round;stroke-miterlimit:10;stroke-dasharray:none;stroke-opacity:1"
             d="m 236.484,22.215 -0.296,0.105 -0.059,0.16 -0.238,0.11 h -0.239 l -0.414,0.051 -0.531,0.109 -0.594,0.156 -0.711,0.27 -0.769,0.426 -1.539,1.171 -0.711,0.426 -0.473,0.375 -0.355,0.211 -0.239,0.055 -0.117,0.16 -0.179,0.105 h 0.832 l 0.648,0.055 0.652,0.106 0.77,0.105 0.89,0.109 0.887,0.211 0.887,0.161 0.832,0.16 0.648,0.215 0.418,0.105 0.293,0.106 0.121,0.269 -0.121,0.316 -0.293,0.43 -0.535,0.426 -0.769,0.426 -0.828,0.265 -0.829,0.215 -0.773,0.16 -0.711,0.16 -0.59,0.106 -0.472,0.051 -0.297,0.16 0.234,-0.051 h 1.066" />
          <path
             inkscape:connector-curvature="0"
             id="path182"
             style="fill:none;stroke:#000000;stroke-width:1.40999997;stroke-linecap:round;stroke-linejoin:round;stroke-miterlimit:10;stroke-dasharray:none;stroke-opacity:1"
             d="m 240.688,24.188 -0.176,-0.106 -0.18,-0.16 v 0.586 l -0.059,0.265 0.059,0.426 0.059,0.641 0.058,0.906 0.121,0.906 0.176,0.746 0.18,0.692 0.176,0.48 0.179,0.321 0.117,0.214 -0.058,0.157 -0.117,-0.317 -0.063,-0.32" />
          <path
             inkscape:connector-curvature="0"
             id="path184"
             style="fill:none;stroke:#000000;stroke-width:1.40999997;stroke-linecap:round;stroke-linejoin:round;stroke-miterlimit:10;stroke-dasharray:none;stroke-opacity:1"
             d="m 237.551,23.281 -0.239,-0.105 -0.238,-0.11 h 2.016 l 0.828,0.055 0.77,0.055 0.828,0.051 h 1.422 l 0.472,-0.051 0.356,-0.11 0.355,-0.105 0.238,-0.106 0.18,-0.105 0.293,-0.16" />
          <path
             inkscape:connector-curvature="0"
             id="path186"
             style="fill:none;stroke:#000000;stroke-width:1.40999997;stroke-linecap:round;stroke-linejoin:round;stroke-miterlimit:10;stroke-dasharray:none;stroke-opacity:1"
             d="m 247.262,22.215 -0.18,-0.16 -0.117,0.16 -0.059,0.48 v 1.493 l 0.059,1.011 0.058,1.067 0.059,0.8 0.063,0.692 0.058,0.48 0.059,0.215 0.058,-0.215 v -0.32 l -0.058,-0.426 -0.117,-0.691 -0.122,-0.906 -0.117,-0.856 -0.058,-0.851 -0.059,-0.692 0.059,-0.535 v -0.32 l 0.175,-0.161 0.415,-0.105 h 0.417 l 0.293,0.105 0.477,0.11 0.414,0.265 0.356,0.426 0.472,0.426 0.414,0.535 0.356,0.586 0.355,0.637 0.297,0.695 0.297,0.586 0.355,0.531 0.473,0.535 0.356,0.372 0.355,0.32 0.238,0.16 h 0.414" />
          <path
             inkscape:connector-curvature="0"
             id="path188"
             style="fill:none;stroke:#000000;stroke-width:1.40999997;stroke-linecap:round;stroke-linejoin:round;stroke-miterlimit:10;stroke-dasharray:none;stroke-opacity:1"
             d="m 247.379,25.199 h -0.234 l 0.234,0.215 0.355,0.106 0.239,0.105 0.414,0.055 0.535,0.054 0.351,0.051 h 1.422 l 0.414,-0.051 0.711,-0.109 0.239,-0.051" />
          <path
             inkscape:connector-curvature="0"
             id="path190"
             style="fill:none;stroke:#000000;stroke-width:1.40999997;stroke-linecap:round;stroke-linejoin:round;stroke-miterlimit:10;stroke-dasharray:none;stroke-opacity:1"
             d="m 255.73,23.922 -0.117,-0.16 -0.121,0.16 v 0.32 l 0.121,0.477 0.235,0.586 0.238,0.59 0.18,0.636 0.293,0.696 0.121,0.636 0.175,0.59 0.356,0.531 0.18,0.481 0.175,0.32 0.059,-0.269 -0.059,-0.211 -0.117,-0.641 -0.121,-0.641 -0.176,-0.906 -0.179,-1.012 -0.176,-1.011 -0.117,-0.906 -0.063,-0.801 -0.058,-0.746 V 22.16 l 0.058,-0.426 0.063,-0.211 0.058,-0.16 0.235,-0.109 0.297,-0.106 0.414,-0.05 0.418,-0.055 h 0.769 l 0.234,0.055 0.239,0.105 0.238,0.16 0.059,0.16 0.117,0.161 -0.059,0.16 v 0.211 l -0.058,0.375 -0.121,0.425 -0.118,0.426 -0.175,0.531 -0.18,0.376 -0.176,0.531 -0.121,0.375 -0.059,0.48 -0.058,0.321 v 0.636 l 0.117,0.27 0.238,0.426 0.297,0.371 0.356,0.32 0.414,0.215 0.355,0.265 0.414,0.161 0.297,0.105 0.234,0.106 h 0.418" />
          <path
             inkscape:connector-curvature="0"
             id="path192"
             style="fill:none;stroke:#000000;stroke-width:1.40999997;stroke-linecap:round;stroke-linejoin:round;stroke-miterlimit:10;stroke-dasharray:none;stroke-opacity:1"
             d="m 264.969,21.734 -0.235,-0.05 -0.179,-0.055 h -0.176 v 0.961 l 0.059,0.691 0.117,0.907 0.179,0.906 0.235,0.906 0.179,0.852 0.235,0.8 0.179,0.532 0.176,0.425 0.121,0.27 v -0.215 l -0.238,-0.32 -0.176,-0.266" />
          <path
             inkscape:connector-curvature="0"
             id="path194"
             style="fill:none;stroke:#000000;stroke-width:1.40999997;stroke-linecap:round;stroke-linejoin:round;stroke-miterlimit:10;stroke-dasharray:none;stroke-opacity:1"
             d="m 263.191,23.602 -0.234,-0.106 -0.594,-0.43 -0.238,-0.211 -0.117,-0.214 -0.176,-0.106 0.293,-0.055 h 0.418 l 0.473,0.055 h 0.652 l 0.531,0.055 0.535,0.051 0.59,0.054 0.414,0.106 0.477,0.054 0.355,0.051 h 0.532 l 0.179,-0.051 0.176,-0.105" />
          <path
             inkscape:connector-curvature="0"
             id="path196"
             style="fill:none;stroke:#000000;stroke-width:1.40999997;stroke-linecap:round;stroke-linejoin:round;stroke-miterlimit:10;stroke-dasharray:none;stroke-opacity:1"
             d="m 276.754,15.285 -0.059,-0.16 -0.117,-0.16 0.059,0.16 v 1.332 l 0.058,0.375 v 0.426 l 0.059,0.426 v 2.453 l -0.059,0.531 -0.058,0.43 -0.059,0.371 -0.058,0.426 -0.122,0.425 -0.058,0.375 -0.117,0.481 -0.059,0.32 v 0.316 l -0.059,0.43 -0.062,0.317 -0.059,0.429 -0.058,0.317 v 0.535 l -0.059,0.265 v 0.536 l -0.058,0.316 v 3.199 l -0.059,0.321 v 1.597 l 0.059,0.321 0.058,0.214 0.117,0.211 0.059,0.27 0.062,0.211 0.059,0.265 0.176,0.481 0.121,0.16 0.117,0.16 0.059,0.215 0.117,0.211 0.121,0.215 0.117,0.215 0.117,0.211 0.18,0.214 0.176,0.211 0.18,0.375 0.296,0.211 0.118,0.215 0.175,0.371 0.239,0.215 0.117,0.215 0.18,0.211 0.175,0.105 0.297,0.11 0.238,0.265 0.235,0.215 0.355,0.266 0.239,0.32 0.355,0.211 0.356,0.266 0.238,0.269 0.234,0.266 0.238,0.215 0.239,0.156 0.293,0.16 0.355,0.109 0.238,0.106 0.239,0.215 0.234,0.105 0.238,0.211 0.176,0.215 0.356,0.16 0.355,0.215 0.356,0.156 0.355,0.215 0.238,0.16 0.297,0.16 0.235,0.106 0.238,0.105 0.297,0.11 0.234,0.105 0.238,0.106 0.297,0.054 0.297,0.106 0.711,0.109 0.234,0.051 h 0.356 l 0.18,0.055 h 0.234 l 0.297,0.054 0.238,0.051 h 0.176 l 0.238,0.055 h 1.008 l 0.355,-0.055 h 0.356 l 0.297,-0.051 0.414,-0.054 0.355,-0.055 0.414,-0.105 0.356,-0.055 0.234,-0.106 0.414,-0.105 0.239,-0.055 0.355,-0.105 0.414,-0.055 0.238,-0.105 0.239,-0.055 0.293,-0.051 0.238,-0.109 0.297,-0.106 0.355,-0.16 0.176,-0.16 0.711,-0.211 0.297,-0.16 0.355,-0.11 0.239,-0.21 0.293,-0.11 0.238,-0.105 0.238,-0.16 0.293,-0.161 0.297,-0.105 0.355,-0.16 0.415,-0.266 0.418,-0.265 0.351,-0.27 0.418,-0.211 0.293,-0.215 0.355,-0.265 0.297,-0.215 0.239,-0.16 0.175,-0.157 0.594,-0.429 0.176,-0.211 0.18,-0.215 0.238,-0.32 0.234,-0.321 0.239,-0.316 0.355,-0.32 0.234,-0.321 0.239,-0.265 0.238,-0.27 0.117,-0.266 0.18,-0.265 0.234,-0.32 0.059,-0.161 0.121,-0.211 0.117,-0.214 0.18,-0.266 0.117,-0.32 0.234,-0.321 0.18,-0.375 0.238,-0.371 0.235,-0.375 0.238,-0.316 0.238,-0.27 0.235,-0.265 0.238,-0.161 0.117,-0.16 0.297,-0.32 0.176,-0.051 0.238,-0.16 0.297,-0.16 0.238,-0.16 0.293,-0.215 0.238,-0.211 0.297,-0.16 0.356,-0.266 0.297,-0.215 0.355,-0.105 0.356,-0.215 0.293,-0.105 0.296,-0.106 0.356,-0.16 0.297,-0.109 0.238,-0.161 0.234,-0.05 0.18,-0.11 0.293,-0.051 0.238,-0.054 0.356,-0.106 h 0.297 l 0.176,-0.105 0.355,-0.055 h 0.18 l 0.238,-0.105 0.352,-0.055 h 0.179 l 0.297,-0.055 0.297,-0.05 h 4.262 l 0.238,0.05 h 0.234 l 0.356,0.055 h 0.238 l 0.297,0.055 0.594,0.211 0.351,0.054 0.239,0.16 0.238,0.106 0.355,0.16 0.235,0.215 0.297,0.16 0.355,0.211 0.18,0.16 0.293,0.16 0.297,0.215 0.179,0.106 0.235,0.211 0.121,0.214 0.234,0.215 0.297,0.317 0.238,0.32 0.235,0.27 0.179,0.316 0.176,0.215 0.18,0.32 0.176,0.211 0.179,0.32 0.239,0.321 0.234,0.265 0.238,0.321 0.176,0.269 0.121,0.317 0.059,0.32 0.175,0.32 0.122,0.321 0.175,0.425 0.18,0.426 0.117,0.375 0.176,0.371 0.121,0.32 0.117,0.375 0.18,0.321 0.234,0.851 0.18,0.375 0.117,0.317 0.059,0.32 0.117,0.426 0.121,0.32 0.059,0.375 0.058,0.266 0.059,0.375 v 0.316 l -0.059,0.32 -0.058,0.426 -0.059,0.27 -0.121,0.371 -0.117,0.32 -0.117,0.375 -0.121,0.266 -0.118,0.371 -0.117,0.375 -0.238,0.371 -0.235,0.535 -0.238,0.531 -0.18,0.536 -0.175,0.531 -0.18,0.535 -0.234,0.531 -0.18,0.481 -0.293,0.425 -0.238,0.376 -0.18,0.316 -0.234,0.32 -0.239,0.27 -0.297,0.371 -0.355,0.48 -0.297,0.481 -0.351,0.636 -0.477,0.641 -0.531,0.586 -0.535,0.641 -0.532,0.586 -0.472,0.425 -0.418,0.426 -0.532,0.375 -0.414,0.32 -0.472,0.372 -0.535,0.32 -0.532,0.375 -0.593,0.32 -0.711,0.371 -0.653,0.481 -0.769,0.531 -0.77,0.535 -0.769,0.371 -0.828,0.426 -0.77,0.32 -0.711,0.375 -1.539,0.532 -0.711,0.32 -0.652,0.16 -0.653,0.266 -0.652,0.32 -0.648,0.266 -0.774,0.32 -0.828,0.32 -0.887,0.321 -0.949,0.375 -0.945,0.316 -0.949,0.32 -0.887,0.16 -0.832,0.215 -0.828,0.266 -0.828,0.105 -0.828,0.161 -0.774,0.16 -0.711,0.109 -0.707,0.051 -0.711,0.055 -0.652,0.05 -0.711,0.055 -0.652,0.055 -0.711,0.051 h -1.422 l -0.59,-0.051 h -0.652 l -0.594,-0.055 -0.59,-0.16 -0.594,-0.16 -0.652,-0.16 -0.59,-0.211 -0.652,-0.11 -0.594,-0.105 -0.711,-0.106 -0.77,-0.16 -0.71,-0.16 -0.649,-0.215 -0.535,-0.16 -0.473,-0.051 -0.355,-0.105 -0.535,-0.11 -0.356,-0.05 -0.355,-0.11 -0.473,-0.051 -0.355,-0.109 -0.414,-0.105 -0.356,-0.161 -0.414,-0.05 -0.414,-0.11 -0.414,-0.16 h -0.594 l -0.414,-0.051 -0.531,-0.054 -0.535,-0.106 -0.414,-0.109 -0.536,-0.106 -0.828,-0.211 -0.472,-0.054 -0.414,-0.055 h -2.606 l -0.414,-0.051 h -1.66 l -0.356,0.051 h -0.414 l -0.711,0.109 -0.71,0.211 -0.356,0.055 -0.355,0.16 -0.711,0.211 -0.414,0.16 -0.356,0.16 -0.473,0.215 -0.414,0.211 -0.414,0.27 -0.476,0.265 -0.473,0.161 -0.355,0.32 -0.414,0.265 -0.356,0.161 -0.297,0.211 -0.355,0.214 -0.356,0.211 -0.238,0.215 -0.352,0.32 -0.179,0.215 -0.356,0.211 -0.355,0.481 -0.356,0.32 -0.355,0.481 -0.297,0.425 -0.355,0.371 -0.356,0.536 -0.293,0.425 -0.238,0.481 -0.297,0.426 -0.234,0.425 -0.18,0.481 -0.238,0.426 -0.059,0.425 -0.176,0.481 -0.121,0.48 -0.117,0.481 -0.117,0.531 -0.059,0.481 -0.121,0.531 -0.059,0.64 -0.117,0.586 -0.058,0.586 -0.063,0.586 v 1.813 l 0.063,0.32 0.117,0.32 0.176,0.426 0.179,0.266 0.297,0.32 0.176,0.32 0.238,0.266 0.297,0.375 0.176,0.371 0.238,0.27 0.356,0.316 0.175,0.32 0.297,0.27 0.239,0.265 0.234,0.266 0.355,0.266 0.297,0.32 0.414,0.215 0.414,0.211 0.418,0.32 0.352,0.215 0.355,0.211 0.356,0.32 0.355,0.215 0.356,0.211 0.418,0.32 0.351,0.215 0.356,0.211 0.711,0.43 0.355,0.211 0.297,0.16 0.414,0.215 0.356,0.16 0.414,0.16 0.476,0.316 0.414,0.321 0.473,0.215 0.414,0.211 0.828,0.429 0.477,0.266 0.531,0.266 0.594,0.32 0.531,0.265 0.594,0.215 0.531,0.321 0.414,0.16 0.418,0.156 0.473,0.27 0.472,0.21 0.536,0.215 0.589,0.321 0.594,0.211 0.473,0.214 0.535,0.266 0.531,0.215 0.414,0.211 0.535,0.215 0.473,0.211 0.356,0.214 0.472,0.215 0.414,0.211 0.414,0.215 0.477,0.106 0.473,0.265 0.593,0.215 0.414,0.16 0.59,0.211 0.535,0.16 0.532,0.215 0.652,0.16 0.594,0.321 0.59,0.265 0.71,0.215 0.594,0.266 0.59,0.211 0.594,0.214 0.472,0.211 0.536,0.215 0.297,0.16 0.292,0.321 0.418,0.32 0.293,0.16 0.297,0.266 0.477,0.16 0.293,0.266 0.355,0.265 0.535,0.321 0.356,0.32 0.531,0.375 0.414,0.316 0.356,0.27 0.414,0.371 0.238,0.16 0.414,0.215 0.238,0.211 0.235,0.109 0.355,0.266 0.239,0.265 0.355,0.321 0.414,0.425 0.355,0.426 0.473,0.481 0.418,0.48 0.414,0.371 0.414,0.375 0.356,0.321 0.355,0.211 0.297,0.214 0.234,0.211 0.239,0.27 0.176,0.211 0.476,0.32 0.234,0.16 0.239,0.215 0.117,0.266 0.121,0.16 0.176,0.266 0.117,0.265 0.121,0.16 0.117,0.215 0.239,0.371 0.117,0.215 0.117,0.32 0.121,0.321 0.117,0.265 0.059,0.266 0.117,0.16 0.121,0.32 0.117,0.161 0.059,0.32 0.058,0.266 0.063,0.265 0.059,0.266 0.058,0.48 v 3.946 l 0.059,0.265 v 0.266 l 0.058,0.269 -0.058,0.211 v 0.586 l -0.059,0.215 v 0.266 l -0.058,0.375 -0.122,0.16 -0.117,0.265 -0.058,0.211 -0.059,0.161 -0.059,0.32 v 1.172 l -0.062,0.215 v 0.32 l -0.059,0.211 v 0.855 l -0.058,0.371 v 0.696 l -0.059,0.371 v 0.375 l -0.058,0.371 -0.059,0.375 v 0.371 l -0.062,0.32 v 0.426 l -0.059,0.32 -0.059,0.426 -0.058,0.321 -0.117,0.374 -0.059,0.372 -0.121,0.375 -0.117,0.32 -0.118,0.266 -0.121,0.32 -0.117,0.211 -0.117,0.269 -0.121,0.317 -0.176,0.32 -0.121,0.32 -0.234,0.321 -0.18,0.425 -0.297,0.426 -0.234,0.375 -0.239,0.371 -0.175,0.27 -0.239,0.316 -0.175,0.27 -0.297,0.32 -0.297,0.266 -0.238,0.32 -0.356,0.211 -0.293,0.16 -0.238,0.266 -0.594,0.32 -0.234,0.215 -0.239,0.105 -0.175,0.106 -0.18,0.16 -0.594,0.43 -0.234,0.211 -0.414,0.214 -0.297,0.266 -0.297,0.16 -0.297,0.211 -0.234,0.215 -0.297,0.106 -0.356,0.214 -0.472,0.266 -0.356,0.215 -0.418,0.211 -0.355,0.16 -0.293,0.109 -0.356,0.157 -0.296,0.109 -0.415,0.105 -0.296,0.215 -0.356,0.16 -0.355,0.157 -0.711,0.32 -0.473,0.269 -0.594,0.266 -0.531,0.32 -1.422,0.532 -0.594,0.265 -0.589,0.16 -0.594,0.161 -0.531,0.109 -0.594,0.105 -1.305,0.211 -0.531,0.055 h -0.535 l -0.356,0.055 h -0.293 l -0.355,0.051 h -0.297 l -0.355,0.054 h -0.415 l -0.355,0.055 h -0.355 l -0.356,-0.055 -0.473,-0.054 -0.418,-0.051 -0.472,-0.055 -0.531,-0.055 h -1.247 l -0.531,-0.05 h -0.535 l -0.293,-0.055 -0.418,-0.106 -0.414,-0.054 -0.414,-0.051 -0.473,-0.109 -0.414,-0.106 -0.535,-0.105 -0.531,-0.16 -0.473,-0.161 -0.476,-0.16 -0.532,-0.16 -0.414,-0.16 -0.535,-0.16 -0.414,-0.16 -0.473,-0.106 -0.414,-0.16 -0.414,-0.215 -0.476,-0.16 -0.828,-0.32 -0.356,-0.157 -0.355,-0.109 -0.297,-0.105 -0.356,-0.161 -0.234,-0.16 -0.297,-0.105 -0.297,-0.16 -0.238,-0.106 -0.234,-0.109 -0.239,-0.16 -0.175,-0.106 -0.239,-0.16 -0.176,-0.106 -0.593,-0.32 -0.356,-0.215 -0.297,-0.16 -0.238,-0.211 -0.176,-0.16 -0.117,-0.16 -0.18,-0.106 -0.234,-0.214 -0.121,-0.161 -0.117,-0.21 -0.117,-0.215 -0.122,-0.266 -0.117,-0.215 -0.117,-0.371 -0.18,-0.375 -0.117,-0.32 -0.179,-0.371 -0.059,-0.266 -0.117,-0.215 -0.059,-0.16 -0.121,-0.266 -0.059,-0.16 -0.234,-0.32 -0.062,-0.215 -0.118,-0.211 -0.058,-0.215 -0.117,-0.16 -0.063,-0.211 -0.117,-0.215 -0.117,-0.21 -0.121,-0.215 -0.235,-0.321 -0.121,-0.16 -0.117,-0.211 -0.059,-0.16 -0.117,-0.215 -0.121,-0.211 -0.117,-0.215 -0.176,-0.214 -0.121,-0.266 -0.117,-0.211 -0.117,-0.16 -0.121,-0.215 -0.176,-0.215 -0.121,-0.156 -0.117,-0.215 -0.176,-0.105 -0.121,-0.161 -0.176,-0.214 -0.238,-0.211 -0.235,-0.215 -0.238,-0.215 -0.238,-0.211 -0.235,-0.16 -0.238,-0.215 -0.18,-0.105 -0.234,-0.106 -0.18,-0.16 -0.176,-0.109 -0.238,-0.106 -0.176,-0.051 -0.179,-0.109 -0.297,-0.051 -0.176,-0.109 -0.238,-0.051 -0.176,-0.055 -0.238,-0.105 -0.235,-0.055 -0.238,-0.054 -0.238,-0.051 -0.235,-0.11 -0.296,-0.05 -0.297,-0.055 h -0.473 l -0.18,-0.051 h -2.605 l -0.356,0.051 -0.472,0.105 -0.356,0.11 -0.238,0.16 -0.356,0.211 -0.296,0.16 -0.293,0.215 -0.356,0.211 -0.238,0.109 -0.238,0.16 -0.293,0.106 -0.239,0.16 -0.238,0.105 -0.234,0.106 -0.121,0.16 -0.235,0.109 -0.476,0.211 -0.235,0.161 -0.179,0.16 -0.176,0.16 -0.18,0.16 -0.176,0.055 -0.238,0.16 -0.234,0.16 -0.239,0.105 -0.238,0.211 -0.117,0.161 -0.238,0.214 -0.235,0.161 -0.179,0.265 -0.239,0.16 -0.351,0.321 -0.18,0.211 -0.117,0.16 -0.059,0.215 -0.179,0.32 -0.118,0.211 -0.121,0.375 -0.058,0.32 -0.117,0.371 -0.118,0.481 -0.121,0.425 -0.175,0.426 -0.122,0.43 -0.175,0.371 -0.059,0.375 -0.059,0.426 v 0.426 l -0.058,0.48 v 2.133 l 0.058,0.637 0.118,0.535 0.058,0.586 0.117,0.586 0.063,0.531 0.234,0.64 0.18,0.536 0.176,0.586 0.297,0.636 0.238,0.696 0.355,0.691 0.414,0.695 0.415,0.637 0.531,0.695 1.187,1.493 0.649,0.746 0.711,0.64 0.652,0.692 0.711,0.64 0.652,0.637 0.59,0.59 0.594,0.476 0.531,0.481 0.535,0.426 0.594,0.429 0.648,0.477 0.653,0.48 0.711,0.426 0.711,0.535 0.769,0.481 0.828,0.476 0.891,0.43 1.008,0.531 1.004,0.375 1.007,0.477 0.95,0.426 0.886,0.429 0.887,0.371 0.949,0.375 0.887,0.321 0.949,0.316 0.828,0.27 0.77,0.32 0.832,0.266 0.828,0.265 0.887,0.371 0.949,0.27 0.945,0.371 2.133,0.641 1.008,0.265 1.008,0.215 0.945,0.211 1.008,0.055 1.008,0.105 1.008,0.055 h 1.003 l 1.008,0.055 h 1.008 l 0.945,-0.055 1.008,-0.055 1.008,-0.105 1.066,-0.106 1.067,-0.16 1.125,-0.109 1.066,-0.106 1.125,-0.16 1.125,-0.105 1.067,-0.161 1.004,-0.214 0.949,-0.266 0.886,-0.211 0.832,-0.375 0.829,-0.426 0.769,-0.426 0.77,-0.48 0.711,-0.48 0.652,-0.481 0.711,-0.476 0.711,-0.536 0.828,-0.64 0.887,-0.586 0.832,-0.586 0.886,-0.531 0.829,-0.481 0.769,-0.48 0.832,-0.532 0.711,-0.586 0.77,-0.535 0.769,-0.586 0.711,-0.64 0.828,-0.746 0.77,-0.746 0.769,-0.797 0.77,-0.856 0.711,-0.746 0.652,-0.746 0.594,-0.691 0.531,-0.696 0.535,-0.691 0.531,-0.801 0.536,-0.746 0.472,-0.797 0.473,-0.855 0.414,-0.746 0.355,-0.797 0.415,-0.696 0.71,-1.171 0.239,-0.426 0.297,-0.535 0.234,-0.532 0.238,-0.586 0.356,-0.746 0.238,-0.695 0.355,-0.691 0.293,-0.692 0.18,-0.59 0.297,-0.636 0.176,-0.641 0.238,-0.586 0.234,-0.641 0.063,-0.586 0.117,-0.64 0.117,-0.586 0.059,-0.586 0.121,-0.586 0.059,-0.531 0.058,-0.59 0.059,-0.531 v -0.586 l 0.058,-0.586 v -1.281 l 0.063,-0.637 0.058,-0.59 0.176,-1.758 v -0.691 l 0.059,-0.641 0.062,-0.64 v -0.637 l 0.059,-0.641 v -0.64 l 0.059,-0.586 0.117,-0.641 0.121,-0.586 0.058,-0.691 0.118,-0.481 0.058,-0.531 0.117,-0.59 0.122,-0.371 0.117,-0.535 0.117,-0.477 0.121,-0.535 0.176,-0.586 0.238,-0.531 0.176,-0.535 0.179,-0.641 0.239,-0.637 0.176,-0.64 0.355,-0.746 0.297,-0.692 0.176,-0.695 0.238,-0.691 0.238,-0.856 0.176,-0.797 0.355,-0.801 0.297,-0.8 0.235,-0.586 0.355,-0.637 0.18,-0.59 0.238,-0.637 0.356,-0.64 0.234,-0.692 0.711,-1.281 0.18,-0.64 0.355,-0.532 0.235,-0.535 0.414,-0.586 0.355,-0.531 0.297,-0.48 0.355,-0.426 0.356,-0.321 0.297,-0.425 0.297,-0.481 0.355,-0.426 0.234,-0.586 0.414,-0.48 0.418,-0.48 0.356,-0.426 0.352,-0.371 0.238,-0.375 0.238,-0.215 0.297,-0.266 0.234,-0.16 0.239,-0.266 0.296,-0.105 0.235,-0.215 0.238,-0.211 0.356,-0.215 0.238,-0.265 0.414,-0.11 0.473,-0.265 0.355,-0.266 0.473,-0.215 0.476,-0.211 0.356,-0.215 0.472,-0.16 0.711,-0.32 0.414,-0.156 0.239,-0.16 0.472,-0.27 0.356,-0.211 0.414,-0.266 0.414,-0.214 0.297,-0.161 0.355,-0.214 0.176,-0.106 0.477,-0.32 0.234,-0.106 0.238,-0.105 0.239,-0.109 0.355,-0.106 0.234,-0.105 0.356,-0.161 0.473,-0.16 0.355,-0.16 0.477,-0.215 0.355,-0.156 0.711,-0.32 0.293,-0.16 0.355,-0.11 0.18,-0.16 h 0.234 l 0.239,-0.051 0.179,-0.054 0.235,-0.051 0.238,-0.055 0.238,-0.105 0.235,-0.055 0.414,-0.106 0.355,-0.109 0.356,-0.16 0.355,-0.106 0.297,-0.105 0.356,-0.055 0.711,-0.211 0.472,-0.109 0.711,-0.211 0.356,-0.109 0.296,-0.157 0.356,-0.109 0.355,-0.051 0.297,-0.054 0.235,-0.106 0.296,-0.055 h 0.297 l 0.356,-0.054 0.297,-0.051 0.355,-0.055 0.176,-0.054 h 0.18 l 0.175,-0.051 0.297,-0.106 h 1.836 l 0.239,0.051 h 0.355 l 0.176,0.055 h 0.238 l 0.176,0.051 0.414,0.109 h 0.238 l 0.297,0.051 0.356,0.054 0.234,0.055 0.297,0.051 h 0.238 l 0.176,0.055 h 0.355 l 0.297,0.054 0.297,0.051 h 4.145 l 0.179,-0.051 h 0.176 l 0.238,-0.054 0.235,-0.055 0.238,-0.051 0.238,-0.055 0.235,-0.105 0.179,-0.055 0.176,-0.054 0.238,-0.051 0.176,-0.055 h 0.238 l 0.239,-0.051 h 0.297 l 0.234,-0.054 h 0.18 l 0.175,-0.055 0.297,-0.051 h 0.18 l 0.234,-0.054 0.239,-0.055 0.234,-0.051 h 0.297 l 0.18,-0.055 0.175,-0.054 h 0.18 l -0.058,-0.211 -0.239,-0.215 -0.355,-0.211 -0.535,-0.16 -0.829,-0.055" />
          <path
             inkscape:connector-curvature="0"
             id="path198"
             style="fill:none;stroke:#000000;stroke-width:1.40999997;stroke-linecap:round;stroke-linejoin:round;stroke-miterlimit:10;stroke-dasharray:none;stroke-opacity:1"
             d="m 333.789,69.281 -0.18,0.051 -0.175,0.055 -0.18,0.054 -0.117,0.371 v 0.481 l 0.117,0.801 0.121,1.011 0.234,1.067 0.18,1.012 0.176,0.961 0.121,0.8 0.059,0.532 0.058,0.425 0.117,0.16 -0.117,-0.214 -0.058,-0.317" />
          <path
             inkscape:connector-curvature="0"
             id="path200"
             style="fill:none;stroke:#000000;stroke-width:1.40999997;stroke-linecap:round;stroke-linejoin:round;stroke-miterlimit:10;stroke-dasharray:none;stroke-opacity:1"
             d="m 332.543,68.855 -0.414,-0.16 -0.234,-0.109 -0.239,-0.051 h 0.239 l 0.234,-0.055 h 1.008 l 0.769,-0.05 0.711,-0.16 0.711,-0.055 0.594,-0.16 0.531,-0.215 0.414,-0.211 0.356,-0.16 0.297,-0.16 h 0.238" />
          <path
             inkscape:connector-curvature="0"
             id="path202"
             style="fill:none;stroke:#000000;stroke-width:1.40999997;stroke-linecap:round;stroke-linejoin:round;stroke-miterlimit:10;stroke-dasharray:none;stroke-opacity:1"
             d="m 333.789,71.574 -0.18,0.16 -0.175,0.106 0.472,-0.055 0.414,-0.105 0.477,-0.16 0.414,-0.106 0.473,-0.16 0.531,-0.109 0.418,-0.106 0.531,-0.055 0.297,-0.105 h 0.414 l 0.176,-0.106" />
          <path
             inkscape:connector-curvature="0"
             id="path204"
             style="fill:none;stroke:#000000;stroke-width:1.40999997;stroke-linecap:round;stroke-linejoin:round;stroke-miterlimit:10;stroke-dasharray:none;stroke-opacity:1"
             d="m 340.422,69.652 -0.117,-0.16 v 2.028 l 0.058,0.851 0.059,0.856 0.058,0.746 0.118,0.746 0.121,0.531 0.117,0.48 0.059,0.321 0.058,0.211" />
          <path
             inkscape:connector-curvature="0"
             id="path206"
             style="fill:none;stroke:#000000;stroke-width:1.40999997;stroke-linecap:round;stroke-linejoin:round;stroke-miterlimit:10;stroke-dasharray:none;stroke-opacity:1"
             d="m 343.207,69.602 -0.18,-0.11 h -0.355 v 2.188 l 0.058,0.691 0.059,0.906 0.063,0.696 0.117,0.746 0.117,0.476 0.121,0.43 0.059,0.32 0.058,0.157 -0.117,-0.372 -0.062,-0.375 -0.118,-0.531 -0.117,-0.586 -0.121,-0.64 -0.059,-0.641 V 72.48 l -0.058,-0.375 V 71.68 l 0.18,-0.055 0.175,0.055 0.18,0.16 0.352,0.16 0.296,0.16 0.415,0.32 0.535,0.211 0.414,0.321 0.593,0.32 0.59,0.211 0.653,0.109 h 1.66 l 0.176,-0.109 0.175,-0.316 0.122,-0.59 0.117,-0.692 v -0.851 l -0.117,-0.801 -0.122,-0.641 -0.175,-0.425 -0.176,-0.321 -0.063,-0.16 -0.117,-0.16" />
          <path
             inkscape:connector-curvature="0"
             id="path208"
             style="fill:none;stroke:#000000;stroke-width:1.40999997;stroke-linecap:round;stroke-linejoin:round;stroke-miterlimit:10;stroke-dasharray:none;stroke-opacity:1"
             d="m 351.676,67.895 h 0.234 l 0.121,0.214 0.117,0.321 0.176,0.476 0.121,0.641 0.117,0.691 0.118,0.801 0.238,0.801 0.238,0.746 0.235,0.691 0.179,0.535 0.118,0.426 0.058,0.321 0.059,0.211" />
          <path
             inkscape:connector-curvature="0"
             id="path210"
             style="fill:none;stroke:#000000;stroke-width:1.40999997;stroke-linecap:round;stroke-linejoin:round;stroke-miterlimit:10;stroke-dasharray:none;stroke-opacity:1"
             d="m 359.312,68.48 -0.175,-0.21 h -0.18 l -0.176,-0.055 h -0.355 l -0.238,-0.055 -0.176,-0.051 h -0.18 l -0.234,-0.054 h -0.77 l -0.18,0.054 -0.175,0.051 -0.18,0.11 -0.297,0.316 -0.176,0.215 -0.179,0.32 -0.118,0.266 -0.175,0.215 -0.063,0.21 -0.117,0.27 v 0.211 l 0.059,0.215 0.238,0.211 0.238,0.215 0.235,0.05 0.179,0.055 0.176,0.055 0.355,0.051 0.18,0.054 0.234,0.106 0.297,0.054 0.239,0.055 0.297,0.106 0.293,0.105 0.238,0.16 0.355,0.215 0.176,0.16 0.238,0.16 0.239,0.051 0.296,0.266 0.293,0.269 0.239,0.266 0.117,0.266 0.059,0.16 0.062,0.16 0.059,0.215 v 0.211 l -0.121,0.214 -0.415,0.372 -0.355,0.269 -0.293,0.316 -0.418,0.321 -0.234,0.16 -0.414,0.16 -0.356,0.055 -0.414,0.051 -0.477,-0.051 -0.414,-0.106 -0.472,-0.16 -0.356,-0.215 -0.355,-0.265 -0.18,-0.16 -0.176,-0.106 -0.058,-0.16" />
          <path
             inkscape:connector-curvature="0"
             id="path212"
             style="fill:none;stroke:#000000;stroke-width:1.40999997;stroke-linecap:round;stroke-linejoin:round;stroke-miterlimit:10;stroke-dasharray:none;stroke-opacity:1"
             d="m 363.402,69.762 -0.062,-0.16 -0.117,-0.161 -0.059,0.266 -0.18,0.481 -0.175,0.906 -0.18,1.226 -0.176,1.332 -0.117,1.278 -0.121,0.906 -0.117,0.695 v 0.426 l -0.059,0.32 v -1.121" />
          <path
             inkscape:connector-curvature="0"
             id="path214"
             style="fill:none;stroke:#000000;stroke-width:1.40999997;stroke-linecap:round;stroke-linejoin:round;stroke-miterlimit:10;stroke-dasharray:none;stroke-opacity:1"
             d="m 363.281,73.598 -0.297,-0.055 -0.117,-0.211 0.356,-0.215 0.355,0.055 0.473,0.055 0.652,0.05 0.535,0.055 0.59,0.106 h 0.473 l 0.418,0.054 h 0.355 l 0.235,-0.054 0.238,-0.106 0.176,-0.32 0.058,-0.16 v -0.321" />
          <path
             inkscape:connector-curvature="0"
             id="path216"
             style="fill:none;stroke:#000000;stroke-width:1.40999997;stroke-linecap:round;stroke-linejoin:round;stroke-miterlimit:10;stroke-dasharray:none;stroke-opacity:1"
             d="m 368.969,70.508 -0.059,-0.16 -0.062,-0.16 -0.059,-0.321 v 0.692 l -0.059,0.8 v 1.012 l -0.117,1.172 -0.121,1.227 -0.176,1.015 -0.117,0.852 -0.179,0.64 -0.059,0.426 -0.059,0.266 -0.121,-0.215" />
        </g>
      </g>
    </g>
  </g>
</svg>
